<svg width="24" height="24" viewBox="0 0 24 24" fill="none" xmlns="http://www.w3.org/2000/svg">
<path d="M19.3036 9C18.8536 9 18.4222 9.18437 18.104 9.51256C17.7859 9.84075 17.6071 10.2859 17.6071 10.75V9.7C17.6071 9.51435 17.5357 9.3363 17.4084 9.20503C17.2811 9.07375 17.1085 9 16.9286 9H6.07143C5.89146 9 5.71886 9.07375 5.59161 9.20503C5.46435 9.3363 5.39286 9.51435 5.39286 9.7V10.75C5.39286 10.2859 5.21413 9.84075 4.89598 9.51256C4.57784 9.18437 4.14635 9 3.69643 9C3.24651 9 2.81501 9.18437 2.49687 9.51256C2.17873 9.84075 2 10.2859 2 10.75V14.95C2 15.4141 2.17873 15.8592 2.49687 16.1874C2.81501 16.5156 3.24651 16.7 3.69643 16.7C4.14635 16.7 4.57784 16.5156 4.89598 16.1874C5.21413 15.8592 5.39286 15.4141 5.39286 14.95V17.4C5.39286 17.5857 5.46435 17.7637 5.59161 17.895C5.71886 18.0263 5.89146 18.1 6.07143 18.1H7.42857V21.25C7.42857 21.7141 7.6073 22.1592 7.92544 22.4874C8.24359 22.8156 8.67508 23 9.125 23C9.57492 23 10.0064 22.8156 10.3246 22.4874C10.6427 22.1592 10.8214 21.7141 10.8214 21.25V18.1H12.1786V21.25C12.1786 21.7141 12.3573 22.1592 12.6754 22.4874C12.9936 22.8156 13.4251 23 13.875 23C14.3249 23 14.7564 22.8156 15.0746 22.4874C15.3927 22.1592 15.5714 21.7141 15.5714 21.25V18.1H16.9286C17.1085 18.1 17.2811 18.0263 17.4084 17.895C17.5357 17.7637 17.6071 17.5857 17.6071 17.4V14.95C17.6071 15.4141 17.7859 15.8592 18.104 16.1874C18.4222 16.5156 18.8536 16.7 19.3036 16.7C19.7535 16.7 20.185 16.5156 20.5031 16.1874C20.8213 15.8592 21 15.4141 21 14.95V10.75C21 10.2859 20.8213 9.84075 20.5031 9.51256C20.185 9.18437 19.7535 9 19.3036 9ZM4.03571 14.95C4.03571 15.0428 3.99997 15.1318 3.93634 15.1975C3.87271 15.2631 3.78641 15.3 3.69643 15.3C3.60644 15.3 3.52015 15.2631 3.45652 15.1975C3.39289 15.1318 3.35714 15.0428 3.35714 14.95V10.75C3.35714 10.6572 3.39289 10.5682 3.45652 10.5025C3.52015 10.4369 3.60644 10.4 3.69643 10.4C3.78641 10.4 3.87271 10.4369 3.93634 10.5025C3.99997 10.5682 4.03571 10.6572 4.03571 10.75V14.95ZM9.46429 21.25C9.46429 21.3428 9.42854 21.4318 9.36491 21.4975C9.30128 21.5631 9.21498 21.6 9.125 21.6C9.03502 21.6 8.94872 21.5631 8.88509 21.4975C8.82146 21.4318 8.78571 21.3428 8.78571 21.25V18.1H9.46429V21.25ZM13.875 21.6C13.7856 21.5982 13.7003 21.5608 13.637 21.4955C13.5738 21.4303 13.5375 21.3423 13.5357 21.25V18.1H14.2143V21.25C14.2125 21.3423 14.1762 21.4303 14.113 21.4955C14.0497 21.5608 13.9644 21.5982 13.875 21.6ZM16.25 16.7H6.75V10.4H16.25V16.7ZM19.6429 14.95C19.6429 15.0428 19.6071 15.1318 19.5435 15.1975C19.4799 15.2631 19.3936 15.3 19.3036 15.3C19.2136 15.3 19.1273 15.2631 19.0637 15.1975C19 15.1318 18.9643 15.0428 18.9643 14.95V10.75C18.9643 10.6572 19 10.5682 19.0637 10.5025C19.1273 10.4369 19.2136 10.4 19.3036 10.4C19.3936 10.4 19.4799 10.4369 19.5435 10.5025C19.6071 10.5682 19.6429 10.6572 19.6429 10.75V14.95Z" fill="white"/>
<path d="M5.00498 8.17615C4.9935 8.27882 5.00193 8.38299 5.02972 8.48186C5.05751 8.58072 5.10405 8.67206 5.16628 8.7499C5.22926 8.82837 5.30679 8.89125 5.3937 8.93437C5.48061 8.9775 5.57492 8.99987 5.67035 9H16.3297C16.4251 8.99987 16.5194 8.9775 16.6063 8.93437C16.6932 8.89125 16.7707 8.82837 16.8337 8.7499C16.896 8.67206 16.9425 8.58072 16.9703 8.48186C16.9981 8.38299 17.0065 8.27882 16.995 8.17615C16.8009 6.47767 16.0132 4.92751 14.7973 3.85095L16.2624 2.24739C16.3646 2.10559 16.4155 1.92762 16.4055 1.74737C16.3955 1.56712 16.3253 1.3972 16.2082 1.26997C16.0911 1.14273 15.9354 1.06708 15.7706 1.05742C15.6059 1.04776 15.4436 1.10477 15.3148 1.21758L13.6413 3.04917C12.8185 2.61019 11.9154 2.38131 11 2.3798C9.95748 2.37986 8.9332 2.67914 8.02937 3.24778L6.17441 1.21758C6.11193 1.14864 6.0376 1.09392 5.9557 1.05657C5.8738 1.01923 5.78595 1 5.69723 1C5.60851 1 5.52066 1.01923 5.43876 1.05657C5.35686 1.09392 5.28253 1.14864 5.22005 1.21758C5.09487 1.3554 5.02461 1.54184 5.02461 1.73617C5.02461 1.93049 5.09487 2.11693 5.22005 2.25475L6.92715 4.12312C5.86465 5.17946 5.18278 6.61722 5.00498 8.17615ZM15.503 7.52884H6.49701C6.78949 6.47095 7.38522 5.54413 8.19615 4.88541C9.00707 4.22669 9.99013 3.87104 11 3.87104C12.0099 3.87104 12.9929 4.22669 13.8039 4.88541C14.6148 5.54413 15.2105 6.47095 15.503 7.52884Z" fill="white"/>
</svg>
