<svg width="26" height="30" viewBox="0 0 26 30" fill="none" xmlns="http://www.w3.org/2000/svg">
<path d="M6.33333 13.6666V8.33329C6.33333 6.56518 7.03571 4.86949 8.28596 3.61925C9.5362 2.369 11.2319 1.66663 13 1.66663C14.7681 1.66663 16.4638 2.369 17.714 3.61925C18.9643 4.86949 19.6667 6.56518 19.6667 8.33329V13.6666M3.66667 13.6666H22.3333C23.8061 13.6666 25 14.8605 25 16.3333V25.6666C25 27.1394 23.8061 28.3333 22.3333 28.3333H3.66667C2.19391 28.3333 1 27.1394 1 25.6666V16.3333C1 14.8605 2.19391 13.6666 3.66667 13.6666Z" stroke="white" stroke-width="2" stroke-linecap="round" stroke-linejoin="round"/>
</svg>
