<svg width="24" height="24" viewBox="0 0 24 24" fill="none" xmlns="http://www.w3.org/2000/svg">
<path d="M2.90032 6.9668H20.7669C21.7242 6.9668 22.5002 7.74281 22.5002 8.70012V19.8667C22.5002 20.8241 21.7242 21.6001 20.7669 21.6001H2.90032C1.94304 21.6001 1.16699 20.8241 1.16699 19.8667V8.70012C1.16699 7.74283 1.94303 6.9668 2.90032 6.9668Z" stroke="white"/>
<mask id="path-2-inside-1_2188_59935" fill="white">
<path d="M16.3005 22.0999V4.23333C16.3005 3.64101 16.0652 3.07296 15.6464 2.65413C15.2275 2.2353 14.6595 2 14.0672 2H9.60051C9.0082 2 8.44014 2.2353 8.02131 2.65413C7.60248 3.07296 7.36719 3.64101 7.36719 4.23333V22.0999"/>
</mask>
<path d="M15.6464 2.65413L16.3535 1.94705L16.3534 1.94696L15.6464 2.65413ZM17.3005 22.0999V4.23333H15.3005V22.0999H17.3005ZM17.3005 4.23333C17.3005 3.37579 16.9598 2.5534 16.3535 1.94705L14.9393 3.36121C15.1706 3.59252 15.3005 3.90623 15.3005 4.23333H17.3005ZM16.3534 1.94696C15.7471 1.34069 14.9248 1 14.0672 1V3C14.3942 3 14.7079 3.12991 14.9394 3.3613L16.3534 1.94696ZM14.0672 1H9.60051V3H14.0672V1ZM9.60051 1C8.74298 1 7.92056 1.34066 7.3142 1.94702L8.72841 3.36124C8.95971 3.12994 9.27342 3 9.60051 3V1ZM7.3142 1.94702C6.70783 2.55339 6.36719 3.3758 6.36719 4.23333H8.36719C8.36719 3.90622 8.49712 3.59253 8.72841 3.36124L7.3142 1.94702ZM6.36719 4.23333V22.0999H8.36719V4.23333H6.36719Z" fill="white" mask="url(#path-2-inside-1_2188_59935)"/>
</svg>
