<svg width="20" height="20" viewBox="0 0 20 20" fill="none" xmlns="http://www.w3.org/2000/svg">
<path fill-rule="evenodd" clip-rule="evenodd" d="M6.11849 1.00032C5.32813 1.00032 4.6604 1.66805 4.6604 2.45841C4.6604 3.26996 5.28578 3.91036 6.08414 3.91625H9.31888L9.19618 3.63693C8.18853 1.34287 6.83542 1.00032 6.11849 1.00032ZM13.9051 1.00036C13.1838 1.00036 11.8245 1.34295 10.8241 3.63745L10.7026 3.91625H13.9377C14.7376 3.91036 15.3631 3.27 15.3632 2.45845C15.3632 1.66809 14.6955 1.00036 13.9051 1.00036ZM1.00036 8.48574H9.51147V4.91685H1.00036V8.48574ZM10.5118 8.48574H18.9996L18.9996 4.91685H10.5118V8.48574ZM2.30586 18.2304H9.51147V9.48582H2.30586V18.2304ZM10.5118 18.2304H17.7175V9.48582H10.5118V18.2304ZM1.80566 19.2307C1.52988 19.2307 1.3055 19.0063 1.3055 18.7305V9.48582H0.500159C0.224382 9.48582 0 9.26143 0 8.98566V4.41641C0 4.14064 0.224382 3.91625 0.500159 3.91625H4.10821L3.95127 3.62303C3.76076 3.26713 3.66004 2.86442 3.66004 2.45841C3.66004 1.10283 4.76287 0 6.11845 0C8.02143 0 9.19032 1.44606 9.83578 2.6592L10.0116 2.98972L10.1875 2.6592C10.833 1.4461 12.0019 0 13.9048 0C14.5604 0 15.1774 0.256016 15.6423 0.720916C16.1072 1.18582 16.3632 1.80291 16.3632 2.45845C16.3632 2.86442 16.2625 3.26713 16.072 3.62307L15.9151 3.91625H19.4998C19.6335 3.91625 19.759 3.96829 19.8535 4.06271C19.948 4.15717 20 4.28279 20 4.41637V8.98566C20 9.26143 19.7756 9.48582 19.4998 9.48582H18.7178V18.7305C18.7178 19.0063 18.4934 19.2307 18.2176 19.2307H1.80566Z" fill="white"/>
</svg>
