<svg width="20" height="14" viewBox="0 0 20 14" fill="none" xmlns="http://www.w3.org/2000/svg">
<rect width="20" height="14" rx="2" fill="white"/>
<mask id="mask0_2518_15880" style="mask-type:alpha" maskUnits="userSpaceOnUse" x="0" y="0" width="20" height="14">
<rect width="20" height="14" rx="2" fill="white"/>
</mask>
<g mask="url(#mask0_2518_15880)">
<path fill-rule="evenodd" clip-rule="evenodd" d="M20 0H0V0.933333H20V0ZM20 1.86668H0V2.80001H20V1.86668ZM0 3.73332H20V4.66665H0V3.73332ZM20 5.6H0V6.53333H20V5.6ZM0 7.46668H20V8.40001H0V7.46668ZM20 9.33332H0V10.2667H20V9.33332ZM0 11.2H20V12.1333H0V11.2ZM20 13.0667H0V14H20V13.0667Z" fill="#D02F44"/>
<rect width="8.57143" height="6.53333" fill="#46467F"/>
<g filter="url(#filter0_d_2518_15880)">
<path fill-rule="evenodd" clip-rule="evenodd" d="M1.90477 1.40002C1.90477 1.65775 1.69158 1.86668 1.42858 1.86668C1.16559 1.86668 0.952393 1.65775 0.952393 1.40002C0.952393 1.14228 1.16559 0.93335 1.42858 0.93335C1.69158 0.93335 1.90477 1.14228 1.90477 1.40002ZM3.80955 1.40002C3.80955 1.65775 3.59635 1.86668 3.33336 1.86668C3.07036 1.86668 2.85717 1.65775 2.85717 1.40002C2.85717 1.14228 3.07036 0.93335 3.33336 0.93335C3.59635 0.93335 3.80955 1.14228 3.80955 1.40002ZM5.2381 1.86668C5.50109 1.86668 5.71429 1.65775 5.71429 1.40002C5.71429 1.14228 5.50109 0.93335 5.2381 0.93335C4.9751 0.93335 4.7619 1.14228 4.7619 1.40002C4.7619 1.65775 4.9751 1.86668 5.2381 1.86668ZM7.61906 1.40002C7.61906 1.65775 7.40586 1.86668 7.14287 1.86668C6.87988 1.86668 6.66668 1.65775 6.66668 1.40002C6.66668 1.14228 6.87988 0.93335 7.14287 0.93335C7.40586 0.93335 7.61906 1.14228 7.61906 1.40002ZM2.38095 2.8C2.64394 2.8 2.85714 2.59107 2.85714 2.33334C2.85714 2.0756 2.64394 1.86667 2.38095 1.86667C2.11796 1.86667 1.90476 2.0756 1.90476 2.33334C1.90476 2.59107 2.11796 2.8 2.38095 2.8ZM4.76192 2.33334C4.76192 2.59107 4.54872 2.8 4.28573 2.8C4.02273 2.8 3.80954 2.59107 3.80954 2.33334C3.80954 2.0756 4.02273 1.86667 4.28573 1.86667C4.54872 1.86667 4.76192 2.0756 4.76192 2.33334ZM6.1905 2.8C6.45349 2.8 6.66669 2.59107 6.66669 2.33334C6.66669 2.0756 6.45349 1.86667 6.1905 1.86667C5.92751 1.86667 5.71431 2.0756 5.71431 2.33334C5.71431 2.59107 5.92751 2.8 6.1905 2.8ZM7.61906 3.2667C7.61906 3.52443 7.40586 3.73336 7.14287 3.73336C6.87988 3.73336 6.66668 3.52443 6.66668 3.2667C6.66668 3.00896 6.87988 2.80003 7.14287 2.80003C7.40586 2.80003 7.61906 3.00896 7.61906 3.2667ZM5.2381 3.73336C5.50109 3.73336 5.71429 3.52443 5.71429 3.2667C5.71429 3.00896 5.50109 2.80003 5.2381 2.80003C4.9751 2.80003 4.7619 3.00896 4.7619 3.2667C4.7619 3.52443 4.9751 3.73336 5.2381 3.73336ZM3.80955 3.2667C3.80955 3.52443 3.59635 3.73336 3.33336 3.73336C3.07036 3.73336 2.85717 3.52443 2.85717 3.2667C2.85717 3.00896 3.07036 2.80003 3.33336 2.80003C3.59635 2.80003 3.80955 3.00896 3.80955 3.2667ZM1.42858 3.73336C1.69158 3.73336 1.90477 3.52443 1.90477 3.2667C1.90477 3.00896 1.69158 2.80003 1.42858 2.80003C1.16559 2.80003 0.952393 3.00896 0.952393 3.2667C0.952393 3.52443 1.16559 3.73336 1.42858 3.73336ZM2.85714 4.20002C2.85714 4.45775 2.64394 4.66668 2.38095 4.66668C2.11796 4.66668 1.90476 4.45775 1.90476 4.20002C1.90476 3.94228 2.11796 3.73335 2.38095 3.73335C2.64394 3.73335 2.85714 3.94228 2.85714 4.20002ZM4.28573 4.66668C4.54872 4.66668 4.76192 4.45775 4.76192 4.20002C4.76192 3.94228 4.54872 3.73335 4.28573 3.73335C4.02273 3.73335 3.80954 3.94228 3.80954 4.20002C3.80954 4.45775 4.02273 4.66668 4.28573 4.66668ZM6.66669 4.20002C6.66669 4.45775 6.45349 4.66668 6.1905 4.66668C5.92751 4.66668 5.71431 4.45775 5.71431 4.20002C5.71431 3.94228 5.92751 3.73335 6.1905 3.73335C6.45349 3.73335 6.66669 3.94228 6.66669 4.20002ZM7.14287 5.6C7.40586 5.6 7.61906 5.39107 7.61906 5.13334C7.61906 4.8756 7.40586 4.66667 7.14287 4.66667C6.87988 4.66667 6.66668 4.8756 6.66668 5.13334C6.66668 5.39107 6.87988 5.6 7.14287 5.6ZM5.71429 5.13334C5.71429 5.39107 5.50109 5.6 5.2381 5.6C4.9751 5.6 4.7619 5.39107 4.7619 5.13334C4.7619 4.8756 4.9751 4.66667 5.2381 4.66667C5.50109 4.66667 5.71429 4.8756 5.71429 5.13334ZM3.33336 5.6C3.59635 5.6 3.80955 5.39107 3.80955 5.13334C3.80955 4.8756 3.59635 4.66667 3.33336 4.66667C3.07036 4.66667 2.85717 4.8756 2.85717 5.13334C2.85717 5.39107 3.07036 5.6 3.33336 5.6ZM1.90477 5.13334C1.90477 5.39107 1.69158 5.6 1.42858 5.6C1.16559 5.6 0.952393 5.39107 0.952393 5.13334C0.952393 4.8756 1.16559 4.66667 1.42858 4.66667C1.69158 4.66667 1.90477 4.8756 1.90477 5.13334Z" fill="url(#paint0_linear_2518_15880)"/>
</g>
</g>
<defs>
<filter id="filter0_d_2518_15880" x="0.952393" y="0.93335" width="6.66663" height="5.66663" filterUnits="userSpaceOnUse" color-interpolation-filters="sRGB">
<feFlood flood-opacity="0" result="BackgroundImageFix"/>
<feColorMatrix in="SourceAlpha" type="matrix" values="0 0 0 0 0 0 0 0 0 0 0 0 0 0 0 0 0 0 127 0" result="hardAlpha"/>
<feOffset dy="1"/>
<feColorMatrix type="matrix" values="0 0 0 0 0 0 0 0 0 0 0 0 0 0 0 0 0 0 0.06 0"/>
<feBlend mode="normal" in2="BackgroundImageFix" result="effect1_dropShadow_2518_15880"/>
<feBlend mode="normal" in="SourceGraphic" in2="effect1_dropShadow_2518_15880" result="shape"/>
</filter>
<linearGradient id="paint0_linear_2518_15880" x1="0.952393" y1="0.93335" x2="0.952393" y2="5.60002" gradientUnits="userSpaceOnUse">
<stop stop-color="white"/>
<stop offset="1" stop-color="#F0F0F0"/>
</linearGradient>
</defs>
</svg>
