<svg width="150" height="46" viewBox="0 0 150 46" fill="none" xmlns="http://www.w3.org/2000/svg">
<g clip-path="url(#clip0_2188_59983)">
<path d="M39.5044 23C39.5044 31.8366 32.2483 39 23.2975 39C14.3466 39 7.09054 31.8366 7.09054 23C7.09054 14.1634 14.3466 7 23.2975 7C32.2483 7 39.5044 14.1634 39.5044 23Z" fill="url(#paint0_radial_2188_59983)"/>
<path fill-rule="evenodd" clip-rule="evenodd" d="M23.2975 40.5C33.0875 40.5 41.0238 32.665 41.0238 23C41.0238 13.335 33.0875 5.5 23.2975 5.5C13.5075 5.5 5.57114 13.335 5.57114 23C5.57114 32.665 13.5075 40.5 23.2975 40.5ZM23.2975 42C33.9266 42 42.5432 33.4934 42.5432 23C42.5432 12.5066 33.9266 4 23.2975 4C12.6684 4 4.05174 12.5066 4.05174 23C4.05174 33.4934 12.6684 42 23.2975 42Z" fill="url(#paint1_radial_2188_59983)"/>
<path d="M21.2716 3.5C21.2716 3.22386 21.4984 3 21.7781 3H24.8169C25.0966 3 25.3234 3.22386 25.3234 3.5V5H21.2716V3.5Z" fill="url(#paint2_radial_2188_59983)"/>
<path d="M21.2716 42.5C21.2716 42.7761 21.4984 43 21.7781 43H24.8169C25.0966 43 25.3234 42.7761 25.3234 42.5V41H21.2716V42.5Z" fill="url(#paint3_radial_2188_59983)"/>
<path d="M43.0497 25C43.3294 25 43.5562 24.7761 43.5562 24.5V21.5C43.5562 21.2239 43.3294 21 43.0497 21H41.5303V25H43.0497Z" fill="url(#paint4_radial_2188_59983)"/>
<path d="M3.54527 25C3.26556 25 3.0388 24.7761 3.0388 24.5V21.5C3.0388 21.2239 3.26556 21 3.54527 21H5.06467V25H3.54527Z" fill="url(#paint5_radial_2188_59983)"/>
<path d="M11.6669 7.1125C11.5271 6.87336 11.6101 6.56756 11.8523 6.42949L14.484 4.92949C14.7262 4.79142 15.036 4.87336 15.1758 5.1125L15.9355 6.41154L12.4266 8.41154L11.6669 7.1125Z" fill="url(#paint6_radial_2188_59983)"/>
<path d="M31.4191 40.8875C31.559 41.1266 31.8688 41.2086 32.111 41.0705L34.7427 39.5705C34.9849 39.4324 35.0679 39.1266 34.9281 38.8875L34.1684 37.5885L30.6594 39.5885L31.4191 40.8875Z" fill="url(#paint7_radial_2188_59983)"/>
<path d="M41.4164 14.982C41.6586 14.844 41.7416 14.5382 41.6017 14.299L40.0823 11.701C39.9425 11.4618 39.6327 11.3799 39.3905 11.5179L38.0746 12.2679L40.1005 15.732L41.4164 14.982Z" fill="url(#paint8_radial_2188_59983)"/>
<path d="M7.2045 34.482C6.96226 34.6201 6.65251 34.5382 6.51265 34.299L4.99325 31.701C4.85339 31.4618 4.93639 31.156 5.17863 31.0179L6.49447 30.2679L8.52034 33.732L7.2045 34.482Z" fill="url(#paint9_radial_2188_59983)"/>
<path d="M5.17863 14.982C4.93639 14.844 4.85339 14.5382 4.99325 14.299L6.51265 11.701C6.65251 11.4618 6.96226 11.3799 7.2045 11.5179L8.52034 12.2679L6.49447 15.732L5.17863 14.982Z" fill="url(#paint10_radial_2188_59983)"/>
<path d="M39.3905 34.482C39.6327 34.6201 39.9425 34.5382 40.0823 34.299L41.6017 31.701C41.7416 31.4618 41.6586 31.156 41.4164 31.0179L40.1005 30.2679L38.0746 33.732L39.3905 34.482Z" fill="url(#paint11_radial_2188_59983)"/>
<path d="M34.9281 7.1125C35.0679 6.87336 34.9849 6.56756 34.7427 6.42949L32.111 4.92949C31.8688 4.79142 31.559 4.87336 31.4191 5.1125L30.6594 6.41154L34.1684 8.41154L34.9281 7.1125Z" fill="url(#paint12_radial_2188_59983)"/>
<path d="M15.1758 40.8875C15.036 41.1266 14.7262 41.2086 14.484 41.0705L11.8523 39.5705C11.6101 39.4324 11.5271 39.1266 11.6669 38.8875L12.4266 37.5885L15.9355 39.5885L15.1758 40.8875Z" fill="url(#paint13_radial_2188_59983)"/>
<path fill-rule="evenodd" clip-rule="evenodd" d="M23.2975 44.5C35.3252 44.5 45.0756 34.8741 45.0756 23C45.0756 11.1259 35.3252 1.5 23.2975 1.5C11.2698 1.5 1.5194 11.1259 1.5194 23C1.5194 34.8741 11.2698 44.5 23.2975 44.5ZM23.2975 46C36.1643 46 46.595 35.7025 46.595 23C46.595 10.2975 36.1643 0 23.2975 0C10.4306 0 0 10.2975 0 23C0 35.7025 10.4306 46 23.2975 46Z" fill="url(#paint14_radial_2188_59983)"/>
<path d="M15.7774 2.0318L19.6779 1L20.0699 2.44402C20.142 2.70986 19.9822 2.9831 19.7129 3.05433L16.7875 3.82818C16.5183 3.89941 16.2415 3.74165 16.1693 3.47582L15.7774 2.0318Z" fill="url(#paint15_radial_2188_59983)"/>
<path d="M45.4514 18.9453L44.4063 15.0946L42.9436 15.4815C42.6743 15.5528 42.5145 15.826 42.5866 16.0918L43.3705 18.9799C43.4427 19.2457 43.7194 19.4035 43.9887 19.3322L45.4514 18.9453Z" fill="url(#paint16_radial_2188_59983)"/>
<path d="M2.05808 30.4241L1.01293 26.5733L2.47563 26.1864C2.74491 26.1152 3.02169 26.2729 3.09384 26.5388L3.8777 29.4268C3.94985 29.6927 3.79005 29.9659 3.52077 30.0371L2.05808 30.4241Z" fill="url(#paint17_radial_2188_59983)"/>
<path d="M27.4046 44.871L31.3051 43.8392L30.9132 42.3952C30.8411 42.1294 30.5643 41.9716 30.295 42.0428L27.3696 42.8167C27.1003 42.8879 26.9405 43.1612 27.0127 43.427L27.4046 44.871Z" fill="url(#paint18_radial_2188_59983)"/>
<path d="M27.4046 1.12897L31.3051 2.16077L30.9132 3.60479C30.8411 3.87063 30.5643 4.02838 30.295 3.95715L27.3696 3.18331C27.1003 3.11208 26.9405 2.83883 27.0127 2.57299L27.4046 1.12897Z" fill="url(#paint19_radial_2188_59983)"/>
<path d="M44.5369 30.4241L45.5821 26.5733L44.1194 26.1864C43.8501 26.1152 43.5733 26.2729 43.5011 26.5388L42.7173 29.4268C42.6451 29.6927 42.8049 29.9659 43.0742 30.0371L44.5369 30.4241Z" fill="url(#paint20_radial_2188_59983)"/>
<path d="M1.14358 18.9453L2.18872 15.0946L3.65142 15.4815C3.92069 15.5528 4.08049 15.826 4.00834 16.0918L3.22448 18.9799C3.15233 19.2457 2.87555 19.4035 2.60627 19.3322L1.14358 18.9453Z" fill="url(#paint21_radial_2188_59983)"/>
<path d="M15.7774 43.9682L19.6779 45L20.0699 43.556C20.142 43.2901 19.9822 43.0169 19.7129 42.9457L16.7875 42.1718C16.5183 42.1006 16.2415 42.2583 16.1693 42.5242L15.7774 43.9682Z" fill="url(#paint22_radial_2188_59983)"/>
<path d="M37.9313 6.08647L40.7867 8.90539L39.7159 9.96249C39.5188 10.1571 39.1992 10.1571 39.0021 9.96249L36.8606 7.8483C36.6634 7.65369 36.6634 7.33818 36.8606 7.14357L37.9313 6.08647Z" fill="url(#paint23_radial_2188_59983)"/>
<path d="M37.9313 39.9135L40.7867 37.0946L39.7159 36.0375C39.5188 35.8429 39.1992 35.8429 39.0021 36.0375L36.8606 38.1517C36.6634 38.3463 36.6634 38.6618 36.8606 38.8564L37.9313 39.9135Z" fill="url(#paint24_radial_2188_59983)"/>
<path d="M6.1652 8.55303L9.02058 5.73411L10.0914 6.7912C10.2885 6.98581 10.2885 7.30133 10.0914 7.49593L7.94982 9.61013C7.75269 9.80473 7.43309 9.80473 7.23597 9.61013L6.1652 8.55303Z" fill="url(#paint25_radial_2188_59983)"/>
<path d="M6.1652 37.447L9.02058 40.2659L10.0914 39.2088C10.2885 39.0142 10.2885 38.6987 10.0914 38.5041L7.94982 36.3899C7.75269 36.1953 7.43309 36.1953 7.23597 36.3899L6.1652 37.447Z" fill="url(#paint26_radial_2188_59983)"/>
<path fill-rule="evenodd" clip-rule="evenodd" d="M27.5788 35.5597L29.2295 37.1905L29.0998 37.3186L27.4491 35.6878L27.5788 35.5597Z" fill="white"/>
<path fill-rule="evenodd" clip-rule="evenodd" d="M27.5788 34.2008L30.1466 36.7375L30.0169 36.8656L27.4491 34.3289L27.5788 34.2008Z" fill="white"/>
<path fill-rule="evenodd" clip-rule="evenodd" d="M29.7798 31.4829L33.2647 34.9255L33.135 35.0537L29.6501 31.611L29.7798 31.4829Z" fill="white"/>
<path fill-rule="evenodd" clip-rule="evenodd" d="M31.8891 31.9358L34.1818 34.2008L34.0521 34.3289L31.7594 32.064L31.8891 31.9358Z" fill="white"/>
<path fill-rule="evenodd" clip-rule="evenodd" d="M28.771 32.117L32.3476 35.6503L32.2179 35.7784L28.6413 32.2452L28.771 32.117Z" fill="white"/>
<path fill-rule="evenodd" clip-rule="evenodd" d="M27.4871 32.4794L31.2471 36.1939L31.1174 36.322L27.3574 32.6076L27.4871 32.4794Z" fill="white"/>
<path fill-rule="evenodd" clip-rule="evenodd" d="M32.191 10.2567H32.3745V19.3694L38.1252 25.0505L37.9955 25.1786L32.191 19.4445V10.2567Z" fill="white"/>
<path fill-rule="evenodd" clip-rule="evenodd" d="M33.1998 11.3439H33.3833V18.9165L37.6667 23.148L37.537 23.2761L33.1998 18.9915V11.3439Z" fill="white"/>
<path fill-rule="evenodd" clip-rule="evenodd" d="M34.392 12.6122H34.5755V18.3729L37.4833 21.2454L37.3536 21.3736L34.392 18.4479V12.6122Z" fill="white"/>
<path fill-rule="evenodd" clip-rule="evenodd" d="M35.5843 13.9712H35.7677V17.9199L37.3916 19.5241L37.2619 19.6522L35.5843 17.9949V13.9712Z" fill="white"/>
<path fill-rule="evenodd" clip-rule="evenodd" d="M36.7765 17.595V15.5113H36.9599V17.595H36.7765Z" fill="white"/>
<path fill-rule="evenodd" clip-rule="evenodd" d="M31.6677 30.3051L36.5282 25.5035L36.6579 25.6316L31.7974 30.4332L31.6677 30.3051Z" fill="white"/>
<path fill-rule="evenodd" clip-rule="evenodd" d="M32.4013 31.0299L37.2619 26.2283L37.3916 26.3564L32.531 31.158L32.4013 31.0299Z" fill="white"/>
<path fill-rule="evenodd" clip-rule="evenodd" d="M33.135 31.9358L36.9867 28.1308L37.1164 28.2589L33.2647 32.064L33.135 31.9358Z" fill="white"/>
<path fill-rule="evenodd" clip-rule="evenodd" d="M33.8687 32.6606L35.6111 30.9393L35.7408 31.0674L33.9984 32.7887L33.8687 32.6606Z" fill="white"/>
<path fill-rule="evenodd" clip-rule="evenodd" d="M33.5018 26.8624L36.6199 23.7821L36.7496 23.9103L33.6315 26.9906L33.5018 26.8624Z" fill="white"/>
<path fill-rule="evenodd" clip-rule="evenodd" d="M34.0521 24.6881L35.7945 22.9668L35.9242 23.0949L34.1818 24.8162L34.0521 24.6881Z" fill="white"/>
<path fill-rule="evenodd" clip-rule="evenodd" d="M31.0905 14.3335V9.53192H31.274V14.3335H31.0905Z" fill="white"/>
<path fill-rule="evenodd" clip-rule="evenodd" d="M29.99 13.8806V9.07894H30.1735V13.8806H29.99Z" fill="white"/>
<path fill-rule="evenodd" clip-rule="evenodd" d="M28.7061 13.337V8.53536H28.8895V13.337H28.7061Z" fill="white"/>
<path fill-rule="evenodd" clip-rule="evenodd" d="M27.4222 10.7628V8.17297H27.6056V11.2002L24.9998 8.62596H19.1685V8.44476H25.0758L27.4222 10.7628Z" fill="white"/>
<path fill-rule="evenodd" clip-rule="evenodd" d="M16.0124 9.53192H24.2124V9.71312H16.0884L11.163 14.5788L11.0333 14.4507L16.0124 9.53192Z" fill="white"/>
<path fill-rule="evenodd" clip-rule="evenodd" d="M13.0509 13.9071L16.6275 10.3738L16.7572 10.502L13.1806 14.0352L13.0509 13.9071Z" fill="white"/>
<path fill-rule="evenodd" clip-rule="evenodd" d="M14.9767 13.5447L18.2782 10.2832L18.4079 10.4114L15.1064 13.6728L14.9767 13.5447Z" fill="white"/>
<path fill-rule="evenodd" clip-rule="evenodd" d="M16.9943 13.1823L19.929 10.2832L20.0587 10.4114L17.124 13.3105L16.9943 13.1823Z" fill="white"/>
<path fill-rule="evenodd" clip-rule="evenodd" d="M25.4046 35.0427L27.9456 37.5528L27.8159 37.681L25.4046 35.2989L22.4431 38.2245L22.3134 38.0964L25.4046 35.0427Z" fill="white"/>
<path fill-rule="evenodd" clip-rule="evenodd" d="M24.1476 38.0964L25.3398 36.9187L25.4695 37.0468L24.2773 38.2245L24.1476 38.0964Z" fill="white"/>
<path fill-rule="evenodd" clip-rule="evenodd" d="M25.7983 38.0964L26.2569 37.6434L26.3866 37.7716L25.928 38.2245L25.7983 38.0964Z" fill="white"/>
<path fill-rule="evenodd" clip-rule="evenodd" d="M23.6353 35.6878L21.1592 38.1339L21.0295 38.0058L23.5056 35.5597L23.6353 35.6878Z" fill="white"/>
<path fill-rule="evenodd" clip-rule="evenodd" d="M22.3514 35.5972L19.8753 38.0434L19.7456 37.9152L22.2217 35.4691L22.3514 35.5972Z" fill="white"/>
<path fill-rule="evenodd" clip-rule="evenodd" d="M21.0675 35.2349L18.5914 37.681L18.4617 37.5528L20.9378 35.1067L21.0675 35.2349Z" fill="white"/>
<path fill-rule="evenodd" clip-rule="evenodd" d="M19.6001 34.8725L17.3074 37.1374L17.1777 37.0093L19.4704 34.7443L19.6001 34.8725Z" fill="white"/>
<path fill-rule="evenodd" clip-rule="evenodd" d="M11.7132 31.5735L16.5738 36.3751L16.4441 36.5032L11.5835 31.7016L11.7132 31.5735Z" fill="white"/>
<path fill-rule="evenodd" clip-rule="evenodd" d="M13.6391 31.8453L17.3991 35.5597L17.2694 35.6878L13.5094 31.9734L13.6391 31.8453Z" fill="white"/>
<path fill-rule="evenodd" clip-rule="evenodd" d="M15.6567 32.0264L18.3162 34.6537L18.1865 34.7819L15.527 32.1546L15.6567 32.0264Z" fill="white"/>
<path fill-rule="evenodd" clip-rule="evenodd" d="M17.4909 32.0264L19.2333 33.7478L19.1036 33.8759L17.3612 32.1546L17.4909 32.0264Z" fill="white"/>
<path fill-rule="evenodd" clip-rule="evenodd" d="M15.7753 19.2258H8.34688V19.0446H15.7753V19.2258Z" fill="white"/>
<path fill-rule="evenodd" clip-rule="evenodd" d="M16.5089 20.0411H8.07176V19.8599H16.5089V20.0411Z" fill="white"/>
<path fill-rule="evenodd" clip-rule="evenodd" d="M16.5089 21.6719H7.79663V21.4907H16.5089V21.6719Z" fill="white"/>
<path fill-rule="evenodd" clip-rule="evenodd" d="M16.9675 20.8565H7.98005V20.6753H16.9675V20.8565Z" fill="white"/>
<path fill-rule="evenodd" clip-rule="evenodd" d="M16.2338 22.4873H7.79663V22.3061H16.2338V22.4873Z" fill="white"/>
<path fill-rule="evenodd" clip-rule="evenodd" d="M15.1602 16.0284L14.1514 15.0318L14.2811 14.9037L15.2899 15.9002L15.1602 16.0284Z" fill="white"/>
<path fill-rule="evenodd" clip-rule="evenodd" d="M15.527 18.0215L12.4089 14.9412L12.5386 14.8131L15.6567 17.8934L15.527 18.0215Z" fill="white"/>
<path fill-rule="evenodd" clip-rule="evenodd" d="M13.8762 18.2027L10.7582 15.1224L10.8879 14.9943L14.0059 18.0745L13.8762 18.2027Z" fill="white"/>
<path fill-rule="evenodd" clip-rule="evenodd" d="M13.0509 19.1992L9.74937 15.9378L9.87906 15.8096L13.1806 19.0711L13.0509 19.1992Z" fill="white"/>
<path fill-rule="evenodd" clip-rule="evenodd" d="M11.4001 19.1992L9.10741 16.9343L9.2371 16.8062L11.5298 19.0711L11.4001 19.1992Z" fill="white"/>
<path fill-rule="evenodd" clip-rule="evenodd" d="M10.1162 19.1992L8.74057 17.8403L8.87027 17.7122L10.2459 19.0711L10.1162 19.1992Z" fill="white"/>
<path fill-rule="evenodd" clip-rule="evenodd" d="M9.86794 23.3932H7.88834V23.212H9.94391L15.1064 28.312L14.9767 28.4401L9.86794 23.3932Z" fill="white"/>
<path fill-rule="evenodd" clip-rule="evenodd" d="M14.9767 26.9906L10.3913 22.4607L10.521 22.3326L15.1064 26.8624L14.9767 26.9906Z" fill="white"/>
<path fill-rule="evenodd" clip-rule="evenodd" d="M11.7669 22.3326C11.8028 22.2972 11.8608 22.2972 11.8966 22.3326L16.3904 26.7718C16.4262 26.8072 16.4262 26.8646 16.3904 26.9C16.3545 26.9353 16.2965 26.9353 16.2607 26.9L11.7669 22.4607C11.7311 22.4253 11.7311 22.368 11.7669 22.3326Z" fill="white"/>
<path fill-rule="evenodd" clip-rule="evenodd" d="M14.4645 23.3667L13.6391 24.1821L13.5094 24.0539L14.3348 23.2386L14.4645 23.3667Z" fill="white"/>
<path fill-rule="evenodd" clip-rule="evenodd" d="M15.565 23.6385L14.3728 24.8162L14.2431 24.6881L15.4353 23.5104L15.565 23.6385Z" fill="white"/>
<path fill-rule="evenodd" clip-rule="evenodd" d="M16.5738 23.9103L14.923 25.541L14.7933 25.4129L16.4441 23.7821L16.5738 23.9103Z" fill="white"/>
<path fill-rule="evenodd" clip-rule="evenodd" d="M17.6743 24.2727L15.6567 26.2658L15.527 26.1377L17.5446 24.1445L17.6743 24.2727Z" fill="white"/>
<path fill-rule="evenodd" clip-rule="evenodd" d="M14.7665 30.9127H9.90592V30.7316H14.7665V30.9127Z" fill="white"/>
<path fill-rule="evenodd" clip-rule="evenodd" d="M13.4825 30.0068H9.17226V29.8256H13.4825V30.0068Z" fill="white"/>
<path fill-rule="evenodd" clip-rule="evenodd" d="M12.6572 29.1008H8.80542V28.9196H12.6572V29.1008Z" fill="white"/>
<path fill-rule="evenodd" clip-rule="evenodd" d="M11.9235 28.1948H8.43859V28.0137H11.9235V28.1948Z" fill="white"/>
<path fill-rule="evenodd" clip-rule="evenodd" d="M8.96198 24.8162L8.22831 25.541L8.09862 25.4129L8.83228 24.6881L8.96198 24.8162Z" fill="white"/>
<path fill-rule="evenodd" clip-rule="evenodd" d="M10.0625 25.1786L8.50344 26.7188L8.37374 26.5906L9.93278 25.0505L10.0625 25.1786Z" fill="white"/>
<path fill-rule="evenodd" clip-rule="evenodd" d="M10.6127 26.2658L9.42052 27.4435L9.29082 27.3154L10.483 26.1377L10.6127 26.2658Z" fill="white"/>
<path d="M19.627 34.9896C19.627 35.1897 19.4628 35.352 19.2602 35.352C19.0576 35.352 18.8933 35.1897 18.8933 34.9896C18.8933 34.7895 19.0576 34.6272 19.2602 34.6272C19.4628 34.6272 19.627 34.7895 19.627 34.9896Z" fill="white"/>
<path d="M21.0943 35.352C21.0943 35.5521 20.9301 35.7144 20.7275 35.7144C20.5249 35.7144 20.3607 35.5521 20.3607 35.352C20.3607 35.1518 20.5249 34.9896 20.7275 34.9896C20.9301 34.9896 21.0943 35.1518 21.0943 35.352Z" fill="white"/>
<path d="M22.5617 35.5332C22.5617 35.7333 22.3974 35.8956 22.1948 35.8956C21.9922 35.8956 21.828 35.7333 21.828 35.5332C21.828 35.333 21.9922 35.1708 22.1948 35.1708C22.3974 35.1708 22.5617 35.333 22.5617 35.5332Z" fill="white"/>
<path d="M23.8456 35.7144C23.8456 35.9145 23.6814 36.0768 23.4788 36.0768C23.2762 36.0768 23.1119 35.9145 23.1119 35.7144C23.1119 35.5142 23.2762 35.352 23.4788 35.352C23.6814 35.352 23.8456 35.5142 23.8456 35.7144Z" fill="white"/>
<path d="M25.6798 36.9827C25.6798 37.1829 25.5155 37.3451 25.3129 37.3451C25.1103 37.3451 24.9461 37.1829 24.9461 36.9827C24.9461 36.7826 25.1103 36.6203 25.3129 36.6203C25.5155 36.6203 25.6798 36.7826 25.6798 36.9827Z" fill="white"/>
<path d="M28.0642 35.7144C28.0642 35.9145 27.8999 36.0768 27.6973 36.0768C27.4947 36.0768 27.3305 35.9145 27.3305 35.7144C27.3305 35.5142 27.4947 35.352 27.6973 35.352C27.8999 35.352 28.0642 35.5142 28.0642 35.7144Z" fill="white"/>
<path d="M27.8808 34.2648C27.8808 34.465 27.7165 34.6272 27.5139 34.6272C27.3113 34.6272 27.1471 34.465 27.1471 34.2648C27.1471 34.0647 27.3113 33.9024 27.5139 33.9024C27.7165 33.9024 27.8808 34.0647 27.8808 34.2648Z" fill="white"/>
<path d="M27.6973 32.4529C27.6973 32.653 27.5331 32.8153 27.3305 32.8153C27.1279 32.8153 26.9637 32.653 26.9637 32.4529C26.9637 32.2528 27.1279 32.0905 27.3305 32.0905C27.5331 32.0905 27.6973 32.2528 27.6973 32.4529Z" fill="white"/>
<path d="M28.9813 32.0905C28.9813 32.2906 28.817 32.4529 28.6144 32.4529C28.4118 32.4529 28.2476 32.2906 28.2476 32.0905C28.2476 31.8904 28.4118 31.7281 28.6144 31.7281C28.817 31.7281 28.9813 31.8904 28.9813 32.0905Z" fill="white"/>
<path d="M30.0818 31.5469C30.0818 31.7471 29.9175 31.9093 29.7149 31.9093C29.5123 31.9093 29.3481 31.7471 29.3481 31.5469C29.3481 31.3468 29.5123 31.1845 29.7149 31.1845C29.9175 31.1845 30.0818 31.3468 30.0818 31.5469Z" fill="white"/>
<path d="M32.2828 32.0905C32.2828 32.2906 32.1185 32.4529 31.9159 32.4529C31.7133 32.4529 31.5491 32.2906 31.5491 32.0905C31.5491 31.8904 31.7133 31.7281 31.9159 31.7281C32.1185 31.7281 32.2828 31.8904 32.2828 32.0905Z" fill="white"/>
<path d="M34.3003 32.6341C34.3003 32.8342 34.1361 32.9965 33.9335 32.9965C33.7309 32.9965 33.5667 32.8342 33.5667 32.6341C33.5667 32.4339 33.7309 32.2717 33.9335 32.2717C34.1361 32.2717 34.3003 32.4339 34.3003 32.6341Z" fill="white"/>
<path d="M33.5667 31.9093C33.5667 32.1095 33.4024 32.2717 33.1998 32.2717C32.9972 32.2717 32.833 32.1095 32.833 31.9093C32.833 31.7092 32.9972 31.5469 33.1998 31.5469C33.4024 31.5469 33.5667 31.7092 33.5667 31.9093Z" fill="white"/>
<path d="M32.833 31.0033C32.833 31.2035 32.6688 31.3657 32.4662 31.3657C32.2636 31.3657 32.0993 31.2035 32.0993 31.0033C32.0993 30.8032 32.2636 30.641 32.4662 30.641C32.6688 30.641 32.833 30.8032 32.833 31.0033Z" fill="white"/>
<path d="M33.9335 26.8359C33.9335 27.036 33.7693 27.1983 33.5667 27.1983C33.3641 27.1983 33.1998 27.036 33.1998 26.8359C33.1998 26.6358 33.3641 26.4735 33.5667 26.4735C33.7693 26.4735 33.9335 26.6358 33.9335 26.8359Z" fill="white"/>
<path d="M34.4838 24.6616C34.4838 24.8617 34.3195 25.024 34.1169 25.024C33.9143 25.024 33.7501 24.8617 33.7501 24.6616C33.7501 24.4614 33.9143 24.2992 34.1169 24.2992C34.3195 24.2992 34.4838 24.4614 34.4838 24.6616Z" fill="white"/>
<path d="M37.9687 23.212C37.9687 23.4122 37.8044 23.5744 37.6018 23.5744C37.3992 23.5744 37.235 23.4122 37.235 23.212C37.235 23.0119 37.3992 22.8496 37.6018 22.8496C37.8044 22.8496 37.9687 23.0119 37.9687 23.212Z" fill="white"/>
<path d="M37.7853 21.2189C37.7853 21.419 37.621 21.5813 37.4184 21.5813C37.2158 21.5813 37.0516 21.419 37.0516 21.2189C37.0516 21.0188 37.2158 20.8565 37.4184 20.8565C37.621 20.8565 37.7853 21.0188 37.7853 21.2189Z" fill="white"/>
<path d="M37.7853 19.5882C37.7853 19.7883 37.621 19.9505 37.4184 19.9505C37.2158 19.9505 37.0516 19.7883 37.0516 19.5882C37.0516 19.388 37.2158 19.2258 37.4184 19.2258C37.621 19.2258 37.7853 19.388 37.7853 19.5882Z" fill="white"/>
<path d="M37.235 17.595C37.235 17.7952 37.0708 17.9574 36.8682 17.9574C36.6656 17.9574 36.5013 17.7952 36.5013 17.595C36.5013 17.3949 36.6656 17.2326 36.8682 17.2326C37.0708 17.2326 37.235 17.3949 37.235 17.595Z" fill="white"/>
<path d="M31.5491 14.3335C31.5491 14.5337 31.3849 14.6959 31.1823 14.6959C30.9797 14.6959 30.8154 14.5337 30.8154 14.3335C30.8154 14.1334 30.9797 13.9712 31.1823 13.9712C31.3849 13.9712 31.5491 14.1334 31.5491 14.3335Z" fill="white"/>
<path d="M30.4486 13.9712C30.4486 14.1713 30.2844 14.3335 30.0818 14.3335C29.8792 14.3335 29.7149 14.1713 29.7149 13.9712C29.7149 13.771 29.8792 13.6088 30.0818 13.6088C30.2844 13.6088 30.4486 13.771 30.4486 13.9712Z" fill="white"/>
<path d="M29.1647 13.4276C29.1647 13.6277 29.0004 13.79 28.7978 13.79C28.5952 13.79 28.431 13.6277 28.431 13.4276C28.431 13.2274 28.5952 13.0652 28.7978 13.0652C29.0004 13.0652 29.1647 13.2274 29.1647 13.4276Z" fill="white"/>
<path d="M24.3958 9.62252C24.3958 9.82266 24.2316 9.98491 24.029 9.98491C23.8264 9.98491 23.6622 9.82266 23.6622 9.62252C23.6622 9.42238 23.8264 9.26013 24.029 9.26013C24.2316 9.26013 24.3958 9.42238 24.3958 9.62252Z" fill="white"/>
<path d="M17.426 13.2464C17.426 13.4465 17.2618 13.6088 17.0592 13.6088C16.8566 13.6088 16.6923 13.4465 16.6923 13.2464C16.6923 13.0462 16.8566 12.884 17.0592 12.884C17.2618 12.884 17.426 13.0462 17.426 13.2464Z" fill="white"/>
<path d="M15.4084 13.6088C15.4084 13.8089 15.2442 13.9712 15.0416 13.9712C14.839 13.9712 14.6748 13.8089 14.6748 13.6088C14.6748 13.4086 14.839 13.2464 15.0416 13.2464C15.2442 13.2464 15.4084 13.4086 15.4084 13.6088Z" fill="white"/>
<path d="M13.7577 13.79C13.7577 13.9901 13.5934 14.1524 13.3908 14.1524C13.1882 14.1524 13.024 13.9901 13.024 13.79C13.024 13.5898 13.1882 13.4276 13.3908 13.4276C13.5934 13.4276 13.7577 13.5898 13.7577 13.79Z" fill="white"/>
<path d="M14.1245 17.9574C14.1245 18.1576 13.9603 18.3198 13.7577 18.3198C13.5551 18.3198 13.3908 18.1576 13.3908 17.9574C13.3908 17.7573 13.5551 17.595 13.7577 17.595C13.9603 17.595 14.1245 17.7573 14.1245 17.9574Z" fill="white"/>
<path d="M15.9587 17.9574C15.9587 18.1576 15.7944 18.3198 15.5918 18.3198C15.3892 18.3198 15.225 18.1576 15.225 17.9574C15.225 17.7573 15.3892 17.595 15.5918 17.595C15.7944 17.595 15.9587 17.7573 15.9587 17.9574Z" fill="white"/>
<path d="M15.5918 15.9643C15.5918 16.1644 15.4276 16.3267 15.225 16.3267C15.0224 16.3267 14.8582 16.1644 14.8582 15.9643C14.8582 15.7641 15.0224 15.6019 15.225 15.6019C15.4276 15.6019 15.5918 15.7641 15.5918 15.9643Z" fill="white"/>
<path d="M16.1421 19.0446C16.1421 19.2447 15.9779 19.407 15.7753 19.407C15.5727 19.407 15.4084 19.2447 15.4084 19.0446C15.4084 18.8444 15.5727 18.6822 15.7753 18.6822C15.9779 18.6822 16.1421 18.8444 16.1421 19.0446Z" fill="white"/>
<path d="M16.8758 19.9505C16.8758 20.1507 16.7115 20.3129 16.5089 20.3129C16.3063 20.3129 16.1421 20.1507 16.1421 19.9505C16.1421 19.7504 16.3063 19.5882 16.5089 19.5882C16.7115 19.5882 16.8758 19.7504 16.8758 19.9505Z" fill="white"/>
<path d="M17.2426 20.6753C17.2426 20.8755 17.0784 21.0377 16.8758 21.0377C16.6732 21.0377 16.5089 20.8755 16.5089 20.6753C16.5089 20.4752 16.6732 20.3129 16.8758 20.3129C17.0784 20.3129 17.2426 20.4752 17.2426 20.6753Z" fill="white"/>
<path d="M17.0592 21.5813C17.0592 21.7814 16.8949 21.9437 16.6923 21.9437C16.4897 21.9437 16.3255 21.7814 16.3255 21.5813C16.3255 21.3811 16.4897 21.2189 16.6923 21.2189C16.8949 21.2189 17.0592 21.3811 17.0592 21.5813Z" fill="white"/>
<path d="M16.6923 22.4873C16.6923 22.6874 16.5281 22.8496 16.3255 22.8496C16.1229 22.8496 15.9587 22.6874 15.9587 22.4873C15.9587 22.2871 16.1229 22.1249 16.3255 22.1249C16.5281 22.1249 16.6923 22.2871 16.6923 22.4873Z" fill="white"/>
<path d="M14.6748 23.3932C14.6748 23.5934 14.5105 23.7556 14.3079 23.7556C14.1053 23.7556 13.9411 23.5934 13.9411 23.3932C13.9411 23.1931 14.1053 23.0308 14.3079 23.0308C14.5105 23.0308 14.6748 23.1931 14.6748 23.3932Z" fill="white"/>
<path d="M15.7753 23.5744C15.7753 23.7746 15.611 23.9368 15.4084 23.9368C15.2058 23.9368 15.0416 23.7746 15.0416 23.5744C15.0416 23.3743 15.2058 23.212 15.4084 23.212C15.611 23.212 15.7753 23.3743 15.7753 23.5744Z" fill="white"/>
<path d="M16.6923 23.9368C16.6923 24.1369 16.5281 24.2992 16.3255 24.2992C16.1229 24.2992 15.9587 24.1369 15.9587 23.9368C15.9587 23.7367 16.1229 23.5744 16.3255 23.5744C16.5281 23.5744 16.6923 23.7367 16.6923 23.9368Z" fill="white"/>
<path d="M9.17226 24.8428C9.17226 25.0429 9.00802 25.2052 8.80542 25.2052C8.60283 25.2052 8.43859 25.0429 8.43859 24.8428C8.43859 24.6426 8.60283 24.4804 8.80542 24.4804C9.00802 24.4804 9.17226 24.6426 9.17226 24.8428Z" fill="white"/>
<path d="M10.2728 25.2052C10.2728 25.4053 10.1085 25.5675 9.90592 25.5675C9.70333 25.5675 9.53909 25.4053 9.53909 25.2052C9.53909 25.005 9.70333 24.8428 9.90592 24.8428C10.1085 24.8428 10.2728 25.005 10.2728 25.2052Z" fill="white"/>
<path d="M10.823 26.2923C10.823 26.4925 10.6588 26.6547 10.4562 26.6547C10.2536 26.6547 10.0893 26.4925 10.0893 26.2923C10.0893 26.0922 10.2536 25.9299 10.4562 25.9299C10.6588 25.9299 10.823 26.0922 10.823 26.2923Z" fill="white"/>
<path d="M12.1069 28.1042C12.1069 28.3044 11.9427 28.4666 11.7401 28.4666C11.5375 28.4666 11.3733 28.3044 11.3733 28.1042C11.3733 27.9041 11.5375 27.7419 11.7401 27.7419C11.9427 27.7419 12.1069 27.9041 12.1069 28.1042Z" fill="white"/>
<path d="M13.024 29.0102C13.024 29.2104 12.8598 29.3726 12.6572 29.3726C12.4546 29.3726 12.2903 29.2104 12.2903 29.0102C12.2903 28.8101 12.4546 28.6478 12.6572 28.6478C12.8598 28.6478 13.024 28.8101 13.024 29.0102Z" fill="white"/>
<path d="M13.7577 29.9162C13.7577 30.1163 13.5934 30.2786 13.3908 30.2786C13.1882 30.2786 13.024 30.1163 13.024 29.9162C13.024 29.716 13.1882 29.5538 13.3908 29.5538C13.5934 29.5538 13.7577 29.716 13.7577 29.9162Z" fill="white"/>
<path d="M14.8582 30.8222C14.8582 31.0223 14.6939 31.1845 14.4913 31.1845C14.2887 31.1845 14.1245 31.0223 14.1245 30.8222C14.1245 30.622 14.2887 30.4598 14.4913 30.4598C14.6939 30.4598 14.8582 30.622 14.8582 30.8222Z" fill="white"/>
<path d="M17.7928 32.0905C17.7928 32.2906 17.6286 32.4529 17.426 32.4529C17.2234 32.4529 17.0592 32.2906 17.0592 32.0905C17.0592 31.8904 17.2234 31.7281 17.426 31.7281C17.6286 31.7281 17.7928 31.8904 17.7928 32.0905Z" fill="white"/>
<path d="M15.9587 32.0905C15.9587 32.2906 15.7944 32.4529 15.5918 32.4529C15.3892 32.4529 15.225 32.2906 15.225 32.0905C15.225 31.8904 15.3892 31.7281 15.5918 31.7281C15.7944 31.7281 15.9587 31.8904 15.9587 32.0905Z" fill="white"/>
<path d="M14.1245 32.0905C14.1245 32.2906 13.9603 32.4529 13.7577 32.4529C13.5551 32.4529 13.3908 32.2906 13.3908 32.0905C13.3908 31.8904 13.5551 31.7281 13.7577 31.7281C13.9603 31.7281 14.1245 31.8904 14.1245 32.0905Z" fill="white"/>
<path d="M12.1069 31.7281C12.1069 31.9283 11.9427 32.0905 11.7401 32.0905C11.5375 32.0905 11.3733 31.9283 11.3733 31.7281C11.3733 31.528 11.5375 31.3657 11.7401 31.3657C11.9427 31.3657 12.1069 31.528 12.1069 31.7281Z" fill="white"/>
<path d="M15.225 28.2854C15.225 28.4856 15.0608 28.6478 14.8582 28.6478C14.6556 28.6478 14.4913 28.4856 14.4913 28.2854C14.4913 28.0853 14.6556 27.9231 14.8582 27.9231C15.0608 27.9231 15.225 28.0853 15.225 28.2854Z" fill="white"/>
<path d="M15.4084 26.8359C15.4084 27.036 15.2442 27.1983 15.0416 27.1983C14.839 27.1983 14.6748 27.036 14.6748 26.8359C14.6748 26.6358 14.839 26.4735 15.0416 26.4735C15.2442 26.4735 15.4084 26.6358 15.4084 26.8359Z" fill="white"/>
<path d="M17.7928 24.2992C17.7928 24.4993 17.6286 24.6616 17.426 24.6616C17.2234 24.6616 17.0592 24.4993 17.0592 24.2992C17.0592 24.099 17.2234 23.9368 17.426 23.9368C17.6286 23.9368 17.7928 24.099 17.7928 24.2992Z" fill="white"/>
<path d="M32.0993 30.2786C32.0993 30.4787 31.9351 30.641 31.7325 30.641C31.5299 30.641 31.3657 30.4787 31.3657 30.2786C31.3657 30.0784 31.5299 29.9162 31.7325 29.9162C31.9351 29.9162 32.0993 30.0784 32.0993 30.2786Z" fill="white"/>
<path d="M26.5968 37.7075C26.5968 37.9076 26.4326 38.0699 26.23 38.0699C26.0274 38.0699 25.8632 37.9076 25.8632 37.7075C25.8632 37.5074 26.0274 37.3451 26.23 37.3451C26.4326 37.3451 26.5968 37.5074 26.5968 37.7075Z" fill="white"/>
<path d="M31.0165 18.6964C30.7821 16.2884 28.678 15.4811 26.0214 15.2512L26.0213 11.911L23.9632 11.9113L23.9633 15.1634C23.4223 15.1635 22.8692 15.174 22.3198 15.1848L22.3201 11.9112L20.2631 11.9111L20.2624 15.2504C19.8168 15.2593 19.3792 15.2675 18.9525 15.2678L18.9522 15.2574L16.1136 15.2565L16.1142 17.4279C16.1142 17.4279 17.634 17.3993 17.6088 17.427C18.4424 17.4272 18.7137 17.9053 18.7926 18.3179L18.7928 22.123C18.8503 22.1233 18.9253 22.1257 19.0103 22.1372C18.9418 22.1373 18.8684 22.1368 18.7929 22.1375L18.7924 27.4681C18.7558 27.7273 18.6016 28.1405 18.0192 28.1415C18.0455 28.1645 16.5231 28.1411 16.5231 28.1411L16.1142 30.5692L18.7925 30.5691C19.2909 30.5697 19.7813 30.578 20.2628 30.5811L20.2637 33.9593L22.3195 33.9596L22.3194 30.6171C22.8839 30.6286 23.4302 30.6331 23.9635 30.6326L23.9626 33.9597L26.0207 33.9595L26.0213 30.5873C29.4813 30.3911 31.9031 29.53 32.2039 26.3202C32.4466 23.7355 31.2159 22.5823 29.2517 22.1163C30.445 21.5161 31.191 20.4585 31.0165 18.6964ZM28.1372 25.9198C28.1383 28.4444 23.7626 28.1572 22.3677 28.1586L22.3683 23.6827C23.7635 23.683 28.1374 23.2867 28.1372 25.9198ZM27.1799 19.6049C27.1793 21.9018 23.53 21.6337 22.3682 21.6338L22.3683 17.5744C23.5301 17.5743 27.1797 17.2093 27.1799 19.6049Z" fill="url(#paint27_linear_2188_59983)"/>
<path d="M55.5557 6.72302H59.9254C61.9166 6.72302 63.3604 7.00305 64.2568 7.5631C65.1596 8.11687 65.6109 9.001 65.6109 10.2155C65.6109 11.0398 65.4125 11.7163 65.0155 12.2449C64.6249 12.7735 64.1031 13.0913 63.4501 13.1983V13.2927C64.34 13.4877 64.9803 13.8527 65.3708 14.3876C65.7678 14.9225 65.9663 15.6336 65.9663 16.5208C65.9663 17.7794 65.5021 18.7611 64.5737 19.4658C63.6517 20.1706 62.3968 20.523 60.809 20.523H55.5557V6.72302ZM58.5329 12.1883H60.2616C61.0683 12.1883 61.6509 12.0656 62.0095 11.8201C62.3744 11.5747 62.5569 11.1688 62.5569 10.6025C62.5569 10.0739 62.3584 9.69635 61.9615 9.46981C61.5709 9.23698 60.9498 9.12056 60.0983 9.12056H58.5329V12.1883ZM58.5329 14.5103V18.1066H60.4729C61.2924 18.1066 61.8974 17.9524 62.288 17.6441C62.6785 17.3357 62.8738 16.8638 62.8738 16.2282C62.8738 15.0829 62.0415 14.5103 60.3768 14.5103H58.5329Z" fill="url(#paint28_linear_2188_59983)"/>
<path d="M68.3609 20.523V6.72302H71.3381V20.523H68.3609Z" fill="url(#paint29_linear_2188_59983)"/>
<path d="M79.8791 20.523H76.9019V9.15832H73.0892V6.72302H83.6919V9.15832H79.8791V20.523Z" fill="url(#paint30_linear_2188_59983)"/>
<path d="M88.9507 20.5116H86.0217V6.7439H94.0691V9.13583H88.9507V12.6861H93.7138V15.0686H88.9507V20.5116Z" fill="white"/>
<path d="M96.4059 20.5116V6.7439H99.3829V20.5116H96.4059Z" fill="white"/>
<path d="M105.484 12.8556H106.444C107.385 12.8556 108.08 12.7018 108.528 12.3941C108.976 12.0865 109.2 11.6031 109.2 10.9439C109.2 10.291 108.97 9.82642 108.509 9.55019C108.054 9.27395 107.347 9.13583 106.387 9.13583H105.484V12.8556ZM105.484 15.2287V20.5116H102.507V6.7439H106.598C108.506 6.7439 109.917 7.08605 110.833 7.77036C111.748 8.44839 112.206 9.48113 112.206 10.8686C112.206 11.6784 111.979 12.4004 111.524 13.0345C111.07 13.6623 110.426 14.1551 109.594 14.513C111.707 17.6081 113.083 19.6076 113.723 20.5116H110.42L107.069 15.2287H105.484Z" fill="white"/>
<path d="M115.081 20.5116V6.7439H118.058V20.5116H115.081Z" fill="white"/>
<path d="M133.637 20.5116H129.854L123.746 10.0964H123.66C123.781 11.9358 123.842 13.248 123.842 14.0327V20.5116H121.182V6.7439H124.937L131.035 17.0556H131.102C131.006 15.2663 130.958 14.0013 130.958 13.2605V6.7439H133.637V20.5116Z" fill="white"/>
<path d="M142.101 12.7802H147.67V19.9184C146.768 20.2072 145.916 20.4081 145.116 20.5211C144.322 20.6403 143.509 20.7 142.677 20.7C140.558 20.7 138.938 20.091 137.818 18.8731C136.704 17.6489 136.147 15.8941 136.147 13.6089C136.147 11.3865 136.793 9.65377 138.087 8.41072C139.386 7.16767 141.185 6.54614 143.484 6.54614C144.924 6.54614 146.313 6.82865 147.651 7.39368L146.662 9.72911C145.638 9.22687 144.572 8.97574 143.464 8.97574C142.177 8.97574 141.147 9.39951 140.372 10.247C139.597 11.0946 139.21 12.234 139.21 13.6654C139.21 15.1596 139.521 16.3022 140.142 17.0933C140.769 17.878 141.678 18.2704 142.869 18.2704C143.49 18.2704 144.121 18.2076 144.761 18.082V15.2098H142.101V12.7802Z" fill="white"/>
<path d="M59.9519 30.8816H58.2266V36.6752H56.7186V30.8816H55.5557V30.1949L56.7186 29.7454V29.2959C56.7186 28.4801 56.9146 27.8767 57.3065 27.4854C57.6984 27.09 58.2969 26.8923 59.102 26.8923C59.6302 26.8923 60.1499 26.9777 60.6611 27.1483L60.265 28.2596C59.8943 28.143 59.5408 28.0848 59.2042 28.0848C58.8635 28.0848 58.6143 28.1888 58.4566 28.3969C58.3033 28.6008 58.2266 28.9088 58.2266 29.3209V29.7704H59.9519V30.8816Z" fill="url(#paint31_linear_2188_59983)"/>
<path d="M64.3353 29.6455C64.6377 29.6455 64.8869 29.6663 65.0829 29.7079L64.9359 31.0752C64.7229 31.0252 64.5014 31.0002 64.2714 31.0002C63.6707 31.0002 63.183 31.1917 62.8081 31.5746C62.4375 31.9575 62.2522 32.4549 62.2522 33.0667V36.6752H60.7506V29.7704H61.9263L62.1244 30.9878H62.2011C62.4354 30.5757 62.7399 30.249 63.1148 30.0076C63.4939 29.7662 63.9008 29.6455 64.3353 29.6455Z" fill="url(#paint32_linear_2188_59983)"/>
<path d="M68.8081 36.8C67.7091 36.8 66.8486 36.4879 66.2267 35.8636C65.609 35.2351 65.3001 34.3715 65.3001 33.2727C65.3001 32.1448 65.5877 31.2583 66.1628 30.6132C66.7378 29.9681 67.528 29.6455 68.5334 29.6455C69.4663 29.6455 70.2032 29.9223 70.7443 30.4758C71.2853 31.0294 71.5558 31.791 71.5558 32.7608V33.5536H66.8465C66.8678 34.2237 67.0531 34.7398 67.4024 35.1019C67.7517 35.4599 68.2437 35.6388 68.8784 35.6388C69.2959 35.6388 69.6835 35.6014 70.0414 35.5264C70.4035 35.4474 70.7911 35.3183 71.2043 35.1394V36.3318C70.838 36.5024 70.4674 36.6231 70.0925 36.6939C69.7176 36.7646 69.2895 36.8 68.8081 36.8ZM68.5334 30.7568C68.0563 30.7568 67.6729 30.9045 67.3832 31.2C67.0978 31.4955 66.9274 31.9263 66.872 32.4923H70.0797C70.0712 31.9221 69.9306 31.4914 69.658 31.2C69.3854 30.9045 69.0105 30.7568 68.5334 30.7568Z" fill="url(#paint33_linear_2188_59983)"/>
<path d="M75.9392 36.8C74.8401 36.8 73.9796 36.4879 73.3577 35.8636C72.74 35.2351 72.4312 34.3715 72.4312 33.2727C72.4312 32.1448 72.7187 31.2583 73.2938 30.6132C73.8689 29.9681 74.6591 29.6455 75.6644 29.6455C76.5973 29.6455 77.3343 29.9223 77.8753 30.4758C78.4163 31.0294 78.6868 31.791 78.6868 32.7608V33.5536H73.9775C73.9988 34.2237 74.1841 34.7398 74.5334 35.1019C74.8827 35.4599 75.3747 35.6388 76.0095 35.6388C76.4269 35.6388 76.8146 35.6014 77.1724 35.5264C77.5345 35.4474 77.9221 35.3183 78.3354 35.1394V36.3318C77.969 36.5024 77.5984 36.6231 77.2235 36.6939C76.8487 36.7646 76.4205 36.8 75.9392 36.8ZM75.6644 30.7568C75.1873 30.7568 74.8039 30.9045 74.5142 31.2C74.2288 31.4955 74.0584 31.9263 74.0031 32.4923H77.2107C77.2022 31.9221 77.0616 31.4914 76.789 31.2C76.5164 30.9045 76.1415 30.7568 75.6644 30.7568Z" fill="url(#paint34_linear_2188_59983)"/>
<path d="M82.3673 36.8C81.4855 36.8 80.7976 36.4879 80.3034 35.8636C79.8093 35.2393 79.5622 34.3632 79.5622 33.2353C79.5622 32.1032 79.8114 31.2229 80.3098 30.5945C80.8125 29.9618 81.5068 29.6455 82.3929 29.6455C83.3215 29.6455 84.0287 29.9806 84.5143 30.6506H84.591C84.5186 30.1554 84.4824 29.7641 84.4824 29.4769V26.961H85.9903V36.6752H84.8146L84.5526 35.7699H84.4824C84.001 36.4567 83.296 36.8 82.3673 36.8ZM82.7699 35.6138C83.3876 35.6138 83.837 35.4453 84.1181 35.1082C84.3993 34.7669 84.5441 34.2154 84.5526 33.4538V33.2477C84.5526 32.3779 84.4078 31.7598 84.1181 31.3936C83.8285 31.0273 83.3748 30.8442 82.7571 30.8442C82.2289 30.8442 81.8221 31.0544 81.5366 31.4747C81.2512 31.8909 81.1085 32.4861 81.1085 33.2602C81.1085 34.026 81.247 34.6108 81.5239 35.0145C81.8008 35.4141 82.2161 35.6138 82.7699 35.6138Z" fill="url(#paint35_linear_2188_59983)"/>
<path d="M93.9968 33.2103C93.9968 34.3382 93.7007 35.2185 93.1086 35.8511C92.5165 36.4837 91.6922 36.8 90.6357 36.8C89.9755 36.8 89.3919 36.6544 88.8849 36.363C88.378 36.0717 87.9882 35.6534 87.7156 35.1082C87.443 34.5629 87.3067 33.9303 87.3067 33.2103C87.3067 32.0907 87.6006 31.2167 88.1884 30.5882C88.7763 29.9597 89.6049 29.6455 90.6741 29.6455C91.6965 29.6455 92.5058 29.9681 93.1022 30.6132C93.6986 31.2541 93.9968 32.1198 93.9968 33.2103ZM88.853 33.2103C88.853 34.8043 89.4558 35.6014 90.6613 35.6014C91.8541 35.6014 92.4505 34.8043 92.4505 33.2103C92.4505 31.6329 91.8498 30.8442 90.6485 30.8442C90.0181 30.8442 89.5601 31.0481 89.2747 31.456C88.9936 31.8639 88.853 32.4486 88.853 33.2103Z" fill="url(#paint36_linear_2188_59983)"/>
<path d="M101.275 36.6752H99.7668V32.4174C99.7668 31.8888 99.6646 31.4955 99.4601 31.2375C99.2556 30.9753 98.9361 30.8442 98.5016 30.8442C97.9223 30.8442 97.4963 31.0294 97.2236 31.3998C96.9553 31.7661 96.8211 32.3779 96.8211 33.2353V36.6752H95.3195V29.7704H96.4952L96.7061 30.6756H96.7827C96.9787 30.3468 97.262 30.0929 97.6326 29.914C98.0075 29.735 98.4185 29.6455 98.8658 29.6455C99.9521 29.6455 100.672 30.0076 101.026 30.7318H101.128C101.337 30.3905 101.63 30.1241 102.01 29.9327C102.389 29.7412 102.823 29.6455 103.313 29.6455C104.157 29.6455 104.77 29.8536 105.153 30.2698C105.541 30.686 105.735 31.3207 105.735 32.1739V36.6752H104.233V32.4174C104.233 31.8888 104.129 31.4955 103.92 31.2375C103.716 30.9753 103.396 30.8442 102.962 30.8442C102.378 30.8442 101.95 31.0231 101.677 31.3811C101.409 31.7348 101.275 32.2801 101.275 33.0167V36.6752Z" fill="url(#paint37_linear_2188_59983)"/>
<path d="M113.303 35.5132C113.669 35.5132 114.034 35.4572 114.399 35.3452V36.4462C114.234 36.5167 114.019 36.5747 113.756 36.6203C113.497 36.6701 113.227 36.695 112.947 36.695C111.528 36.695 110.819 35.9652 110.819 34.5056V30.7985H109.857V30.1516L110.889 29.6167L111.398 28.1612H112.322V29.6913H114.329V30.7985H112.322V34.4807C112.322 34.8331 112.411 35.0944 112.59 35.2644C112.772 35.4303 113.01 35.5132 113.303 35.5132Z" fill="white"/>
<path d="M121.656 33.1185C121.656 34.2422 121.361 35.1193 120.77 35.7495C120.18 36.3798 119.358 36.695 118.305 36.695C117.646 36.695 117.064 36.5498 116.559 36.2596C116.054 35.9693 115.665 35.5526 115.393 35.0094C115.121 34.4662 114.985 33.8359 114.985 33.1185C114.985 32.0031 115.278 31.1323 115.864 30.5061C116.451 29.88 117.277 29.5669 118.343 29.5669C119.362 29.5669 120.169 29.8883 120.764 30.531C121.358 31.1696 121.656 32.0321 121.656 33.1185ZM116.527 33.1185C116.527 34.7067 117.128 35.5007 118.33 35.5007C119.519 35.5007 120.114 34.7067 120.114 33.1185C120.114 31.5469 119.515 30.7611 118.317 30.7611C117.689 30.7611 117.232 30.9643 116.948 31.3707C116.667 31.7771 116.527 32.3597 116.527 33.1185Z" fill="white"/>
<path d="M129.53 36.695C128.638 36.695 127.946 36.3819 127.453 35.7558H127.364C127.424 36.3363 127.453 36.6888 127.453 36.8132V39.6308H125.956V29.6913H127.167C127.201 29.8199 127.271 30.1267 127.377 30.6119H127.453C127.92 29.9152 128.621 29.5669 129.556 29.5669C130.435 29.5669 131.119 29.8779 131.607 30.4999C132.1 31.1219 132.346 31.9948 132.346 33.1185C132.346 34.2422 132.096 35.1193 131.594 35.7495C131.097 36.3798 130.409 36.695 129.53 36.695ZM129.167 30.7611C128.572 30.7611 128.137 30.9312 127.861 31.2712C127.589 31.6112 127.453 32.1544 127.453 32.9008V33.1185C127.453 33.9561 127.589 34.5636 127.861 34.941C128.133 35.3141 128.577 35.5007 129.193 35.5007C129.711 35.5007 130.11 35.2934 130.39 34.8788C130.671 34.4641 130.811 33.8732 130.811 33.1061C130.811 32.3348 130.671 31.7522 130.39 31.3583C130.114 30.9602 129.706 30.7611 129.167 30.7611Z" fill="white"/>
<path d="M135.175 36.5706H133.678V26.8923H135.175V36.5706Z" fill="white"/>
<path d="M141.323 36.5706L141.023 35.6127H140.972C140.633 36.0315 140.291 36.3176 139.947 36.4711C139.603 36.6203 139.161 36.695 138.622 36.695C137.929 36.695 137.388 36.5125 136.997 36.1476C136.61 35.7827 136.417 35.2665 136.417 34.5989C136.417 33.8898 136.687 33.3549 137.226 32.9941C137.766 32.6333 138.588 32.4364 139.692 32.4032L140.909 32.3659V31.9989C140.909 31.5594 140.803 31.2318 140.59 31.0162C140.382 30.7964 140.057 30.6865 139.615 30.6865C139.254 30.6865 138.908 30.7383 138.577 30.842C138.246 30.9457 137.927 31.068 137.621 31.209L137.137 30.164C137.519 29.9691 137.938 29.8219 138.392 29.7224C138.847 29.6187 139.276 29.5669 139.679 29.5669C140.575 29.5669 141.251 29.7577 141.705 30.1391C142.164 30.5206 142.393 31.1198 142.393 31.9367V36.5706H141.323ZM139.093 35.5754C139.637 35.5754 140.072 35.4282 140.399 35.1338C140.73 34.8352 140.896 34.4185 140.896 33.8836V33.2864L139.991 33.3238C139.286 33.3486 138.772 33.4647 138.45 33.6721C138.131 33.8753 137.972 34.1883 137.972 34.6113C137.972 34.9181 138.065 35.1566 138.252 35.3266C138.439 35.4925 138.719 35.5754 139.093 35.5754Z" fill="white"/>
<path d="M143.005 29.6913H144.636L146.069 33.5912C146.286 34.1469 146.43 34.6693 146.502 35.1587H146.553C146.592 34.9306 146.662 34.6548 146.764 34.3314C146.866 34.0038 147.405 32.4571 148.382 29.6913H150L146.987 37.4849C146.439 38.9155 145.526 39.6308 144.247 39.6308C143.916 39.6308 143.593 39.5955 143.279 39.5251V38.3681C143.504 38.4179 143.761 38.4428 144.05 38.4428C144.772 38.4428 145.279 38.0343 145.572 37.2175L145.833 36.5706L143.005 29.6913Z" fill="white"/>
</g>
<defs>
<radialGradient id="paint0_radial_2188_59983" cx="0" cy="0" r="1" gradientUnits="userSpaceOnUse" gradientTransform="translate(23.2954 23.0308) rotate(-90) scale(23.0116 23.2939)">
<stop stop-color="#8F4207"/>
<stop offset="0.430258" stop-color="#904200"/>
<stop offset="0.645669" stop-color="#D28304"/>
<stop offset="0.695159" stop-color="#FEE13E"/>
<stop offset="0.761643" stop-color="#8F4207"/>
<stop offset="0.783072" stop-color="#D29804"/>
<stop offset="0.86918" stop-color="#C25200"/>
<stop offset="0.892696" stop-color="#FFC909"/>
<stop offset="0.986342" stop-color="#A55007"/>
<stop offset="1" stop-color="#FEE13E"/>
</radialGradient>
<radialGradient id="paint1_radial_2188_59983" cx="0" cy="0" r="1" gradientUnits="userSpaceOnUse" gradientTransform="translate(23.2954 23.0308) rotate(-90) scale(23.0116 23.2939)">
<stop stop-color="#8F4207"/>
<stop offset="0.430258" stop-color="#904200"/>
<stop offset="0.645669" stop-color="#D28304"/>
<stop offset="0.695159" stop-color="#FEE13E"/>
<stop offset="0.761643" stop-color="#8F4207"/>
<stop offset="0.783072" stop-color="#D29804"/>
<stop offset="0.86918" stop-color="#C25200"/>
<stop offset="0.892696" stop-color="#FFC909"/>
<stop offset="0.986342" stop-color="#A55007"/>
<stop offset="1" stop-color="#FEE13E"/>
</radialGradient>
<radialGradient id="paint2_radial_2188_59983" cx="0" cy="0" r="1" gradientUnits="userSpaceOnUse" gradientTransform="translate(23.2954 23.0308) rotate(-90) scale(23.0116 23.2939)">
<stop stop-color="#8F4207"/>
<stop offset="0.430258" stop-color="#904200"/>
<stop offset="0.645669" stop-color="#D28304"/>
<stop offset="0.695159" stop-color="#FEE13E"/>
<stop offset="0.761643" stop-color="#8F4207"/>
<stop offset="0.783072" stop-color="#D29804"/>
<stop offset="0.86918" stop-color="#C25200"/>
<stop offset="0.892696" stop-color="#FFC909"/>
<stop offset="0.986342" stop-color="#A55007"/>
<stop offset="1" stop-color="#FEE13E"/>
</radialGradient>
<radialGradient id="paint3_radial_2188_59983" cx="0" cy="0" r="1" gradientUnits="userSpaceOnUse" gradientTransform="translate(23.2954 23.0308) rotate(-90) scale(23.0116 23.2939)">
<stop stop-color="#8F4207"/>
<stop offset="0.430258" stop-color="#904200"/>
<stop offset="0.645669" stop-color="#D28304"/>
<stop offset="0.695159" stop-color="#FEE13E"/>
<stop offset="0.761643" stop-color="#8F4207"/>
<stop offset="0.783072" stop-color="#D29804"/>
<stop offset="0.86918" stop-color="#C25200"/>
<stop offset="0.892696" stop-color="#FFC909"/>
<stop offset="0.986342" stop-color="#A55007"/>
<stop offset="1" stop-color="#FEE13E"/>
</radialGradient>
<radialGradient id="paint4_radial_2188_59983" cx="0" cy="0" r="1" gradientUnits="userSpaceOnUse" gradientTransform="translate(23.2954 23.0308) rotate(-90) scale(23.0116 23.2939)">
<stop stop-color="#8F4207"/>
<stop offset="0.430258" stop-color="#904200"/>
<stop offset="0.645669" stop-color="#D28304"/>
<stop offset="0.695159" stop-color="#FEE13E"/>
<stop offset="0.761643" stop-color="#8F4207"/>
<stop offset="0.783072" stop-color="#D29804"/>
<stop offset="0.86918" stop-color="#C25200"/>
<stop offset="0.892696" stop-color="#FFC909"/>
<stop offset="0.986342" stop-color="#A55007"/>
<stop offset="1" stop-color="#FEE13E"/>
</radialGradient>
<radialGradient id="paint5_radial_2188_59983" cx="0" cy="0" r="1" gradientUnits="userSpaceOnUse" gradientTransform="translate(23.2954 23.0308) rotate(-90) scale(23.0116 23.2939)">
<stop stop-color="#8F4207"/>
<stop offset="0.430258" stop-color="#904200"/>
<stop offset="0.645669" stop-color="#D28304"/>
<stop offset="0.695159" stop-color="#FEE13E"/>
<stop offset="0.761643" stop-color="#8F4207"/>
<stop offset="0.783072" stop-color="#D29804"/>
<stop offset="0.86918" stop-color="#C25200"/>
<stop offset="0.892696" stop-color="#FFC909"/>
<stop offset="0.986342" stop-color="#A55007"/>
<stop offset="1" stop-color="#FEE13E"/>
</radialGradient>
<radialGradient id="paint6_radial_2188_59983" cx="0" cy="0" r="1" gradientUnits="userSpaceOnUse" gradientTransform="translate(23.2954 23.0308) rotate(-90) scale(23.0116 23.2939)">
<stop stop-color="#8F4207"/>
<stop offset="0.430258" stop-color="#904200"/>
<stop offset="0.645669" stop-color="#D28304"/>
<stop offset="0.695159" stop-color="#FEE13E"/>
<stop offset="0.761643" stop-color="#8F4207"/>
<stop offset="0.783072" stop-color="#D29804"/>
<stop offset="0.86918" stop-color="#C25200"/>
<stop offset="0.892696" stop-color="#FFC909"/>
<stop offset="0.986342" stop-color="#A55007"/>
<stop offset="1" stop-color="#FEE13E"/>
</radialGradient>
<radialGradient id="paint7_radial_2188_59983" cx="0" cy="0" r="1" gradientUnits="userSpaceOnUse" gradientTransform="translate(23.2954 23.0308) rotate(-90) scale(23.0116 23.2939)">
<stop stop-color="#8F4207"/>
<stop offset="0.430258" stop-color="#904200"/>
<stop offset="0.645669" stop-color="#D28304"/>
<stop offset="0.695159" stop-color="#FEE13E"/>
<stop offset="0.761643" stop-color="#8F4207"/>
<stop offset="0.783072" stop-color="#D29804"/>
<stop offset="0.86918" stop-color="#C25200"/>
<stop offset="0.892696" stop-color="#FFC909"/>
<stop offset="0.986342" stop-color="#A55007"/>
<stop offset="1" stop-color="#FEE13E"/>
</radialGradient>
<radialGradient id="paint8_radial_2188_59983" cx="0" cy="0" r="1" gradientUnits="userSpaceOnUse" gradientTransform="translate(23.2954 23.0308) rotate(-90) scale(23.0116 23.2939)">
<stop stop-color="#8F4207"/>
<stop offset="0.430258" stop-color="#904200"/>
<stop offset="0.645669" stop-color="#D28304"/>
<stop offset="0.695159" stop-color="#FEE13E"/>
<stop offset="0.761643" stop-color="#8F4207"/>
<stop offset="0.783072" stop-color="#D29804"/>
<stop offset="0.86918" stop-color="#C25200"/>
<stop offset="0.892696" stop-color="#FFC909"/>
<stop offset="0.986342" stop-color="#A55007"/>
<stop offset="1" stop-color="#FEE13E"/>
</radialGradient>
<radialGradient id="paint9_radial_2188_59983" cx="0" cy="0" r="1" gradientUnits="userSpaceOnUse" gradientTransform="translate(23.2954 23.0308) rotate(-90) scale(23.0116 23.2939)">
<stop stop-color="#8F4207"/>
<stop offset="0.430258" stop-color="#904200"/>
<stop offset="0.645669" stop-color="#D28304"/>
<stop offset="0.695159" stop-color="#FEE13E"/>
<stop offset="0.761643" stop-color="#8F4207"/>
<stop offset="0.783072" stop-color="#D29804"/>
<stop offset="0.86918" stop-color="#C25200"/>
<stop offset="0.892696" stop-color="#FFC909"/>
<stop offset="0.986342" stop-color="#A55007"/>
<stop offset="1" stop-color="#FEE13E"/>
</radialGradient>
<radialGradient id="paint10_radial_2188_59983" cx="0" cy="0" r="1" gradientUnits="userSpaceOnUse" gradientTransform="translate(23.2954 23.0308) rotate(-90) scale(23.0116 23.2939)">
<stop stop-color="#8F4207"/>
<stop offset="0.430258" stop-color="#904200"/>
<stop offset="0.645669" stop-color="#D28304"/>
<stop offset="0.695159" stop-color="#FEE13E"/>
<stop offset="0.761643" stop-color="#8F4207"/>
<stop offset="0.783072" stop-color="#D29804"/>
<stop offset="0.86918" stop-color="#C25200"/>
<stop offset="0.892696" stop-color="#FFC909"/>
<stop offset="0.986342" stop-color="#A55007"/>
<stop offset="1" stop-color="#FEE13E"/>
</radialGradient>
<radialGradient id="paint11_radial_2188_59983" cx="0" cy="0" r="1" gradientUnits="userSpaceOnUse" gradientTransform="translate(23.2954 23.0308) rotate(-90) scale(23.0116 23.2939)">
<stop stop-color="#8F4207"/>
<stop offset="0.430258" stop-color="#904200"/>
<stop offset="0.645669" stop-color="#D28304"/>
<stop offset="0.695159" stop-color="#FEE13E"/>
<stop offset="0.761643" stop-color="#8F4207"/>
<stop offset="0.783072" stop-color="#D29804"/>
<stop offset="0.86918" stop-color="#C25200"/>
<stop offset="0.892696" stop-color="#FFC909"/>
<stop offset="0.986342" stop-color="#A55007"/>
<stop offset="1" stop-color="#FEE13E"/>
</radialGradient>
<radialGradient id="paint12_radial_2188_59983" cx="0" cy="0" r="1" gradientUnits="userSpaceOnUse" gradientTransform="translate(23.2954 23.0308) rotate(-90) scale(23.0116 23.2939)">
<stop stop-color="#8F4207"/>
<stop offset="0.430258" stop-color="#904200"/>
<stop offset="0.645669" stop-color="#D28304"/>
<stop offset="0.695159" stop-color="#FEE13E"/>
<stop offset="0.761643" stop-color="#8F4207"/>
<stop offset="0.783072" stop-color="#D29804"/>
<stop offset="0.86918" stop-color="#C25200"/>
<stop offset="0.892696" stop-color="#FFC909"/>
<stop offset="0.986342" stop-color="#A55007"/>
<stop offset="1" stop-color="#FEE13E"/>
</radialGradient>
<radialGradient id="paint13_radial_2188_59983" cx="0" cy="0" r="1" gradientUnits="userSpaceOnUse" gradientTransform="translate(23.2954 23.0308) rotate(-90) scale(23.0116 23.2939)">
<stop stop-color="#8F4207"/>
<stop offset="0.430258" stop-color="#904200"/>
<stop offset="0.645669" stop-color="#D28304"/>
<stop offset="0.695159" stop-color="#FEE13E"/>
<stop offset="0.761643" stop-color="#8F4207"/>
<stop offset="0.783072" stop-color="#D29804"/>
<stop offset="0.86918" stop-color="#C25200"/>
<stop offset="0.892696" stop-color="#FFC909"/>
<stop offset="0.986342" stop-color="#A55007"/>
<stop offset="1" stop-color="#FEE13E"/>
</radialGradient>
<radialGradient id="paint14_radial_2188_59983" cx="0" cy="0" r="1" gradientUnits="userSpaceOnUse" gradientTransform="translate(23.2954 23.0308) rotate(-90) scale(23.0116 23.2939)">
<stop stop-color="#8F4207"/>
<stop offset="0.430258" stop-color="#904200"/>
<stop offset="0.645669" stop-color="#D28304"/>
<stop offset="0.695159" stop-color="#FEE13E"/>
<stop offset="0.761643" stop-color="#8F4207"/>
<stop offset="0.783072" stop-color="#D29804"/>
<stop offset="0.86918" stop-color="#C25200"/>
<stop offset="0.892696" stop-color="#FFC909"/>
<stop offset="0.986342" stop-color="#A55007"/>
<stop offset="1" stop-color="#FEE13E"/>
</radialGradient>
<radialGradient id="paint15_radial_2188_59983" cx="0" cy="0" r="1" gradientUnits="userSpaceOnUse" gradientTransform="translate(23.2954 23.0308) rotate(-90) scale(23.0116 23.2939)">
<stop stop-color="#8F4207"/>
<stop offset="0.430258" stop-color="#904200"/>
<stop offset="0.645669" stop-color="#D28304"/>
<stop offset="0.695159" stop-color="#FEE13E"/>
<stop offset="0.761643" stop-color="#8F4207"/>
<stop offset="0.783072" stop-color="#D29804"/>
<stop offset="0.86918" stop-color="#C25200"/>
<stop offset="0.892696" stop-color="#FFC909"/>
<stop offset="0.986342" stop-color="#A55007"/>
<stop offset="1" stop-color="#FEE13E"/>
</radialGradient>
<radialGradient id="paint16_radial_2188_59983" cx="0" cy="0" r="1" gradientUnits="userSpaceOnUse" gradientTransform="translate(23.2954 23.0308) rotate(-90) scale(23.0116 23.2939)">
<stop stop-color="#8F4207"/>
<stop offset="0.430258" stop-color="#904200"/>
<stop offset="0.645669" stop-color="#D28304"/>
<stop offset="0.695159" stop-color="#FEE13E"/>
<stop offset="0.761643" stop-color="#8F4207"/>
<stop offset="0.783072" stop-color="#D29804"/>
<stop offset="0.86918" stop-color="#C25200"/>
<stop offset="0.892696" stop-color="#FFC909"/>
<stop offset="0.986342" stop-color="#A55007"/>
<stop offset="1" stop-color="#FEE13E"/>
</radialGradient>
<radialGradient id="paint17_radial_2188_59983" cx="0" cy="0" r="1" gradientUnits="userSpaceOnUse" gradientTransform="translate(23.2954 23.0308) rotate(-90) scale(23.0116 23.2939)">
<stop stop-color="#8F4207"/>
<stop offset="0.430258" stop-color="#904200"/>
<stop offset="0.645669" stop-color="#D28304"/>
<stop offset="0.695159" stop-color="#FEE13E"/>
<stop offset="0.761643" stop-color="#8F4207"/>
<stop offset="0.783072" stop-color="#D29804"/>
<stop offset="0.86918" stop-color="#C25200"/>
<stop offset="0.892696" stop-color="#FFC909"/>
<stop offset="0.986342" stop-color="#A55007"/>
<stop offset="1" stop-color="#FEE13E"/>
</radialGradient>
<radialGradient id="paint18_radial_2188_59983" cx="0" cy="0" r="1" gradientUnits="userSpaceOnUse" gradientTransform="translate(23.2954 23.0308) rotate(-90) scale(23.0116 23.2939)">
<stop stop-color="#8F4207"/>
<stop offset="0.430258" stop-color="#904200"/>
<stop offset="0.645669" stop-color="#D28304"/>
<stop offset="0.695159" stop-color="#FEE13E"/>
<stop offset="0.761643" stop-color="#8F4207"/>
<stop offset="0.783072" stop-color="#D29804"/>
<stop offset="0.86918" stop-color="#C25200"/>
<stop offset="0.892696" stop-color="#FFC909"/>
<stop offset="0.986342" stop-color="#A55007"/>
<stop offset="1" stop-color="#FEE13E"/>
</radialGradient>
<radialGradient id="paint19_radial_2188_59983" cx="0" cy="0" r="1" gradientUnits="userSpaceOnUse" gradientTransform="translate(23.2954 23.0308) rotate(-90) scale(23.0116 23.2939)">
<stop stop-color="#8F4207"/>
<stop offset="0.430258" stop-color="#904200"/>
<stop offset="0.645669" stop-color="#D28304"/>
<stop offset="0.695159" stop-color="#FEE13E"/>
<stop offset="0.761643" stop-color="#8F4207"/>
<stop offset="0.783072" stop-color="#D29804"/>
<stop offset="0.86918" stop-color="#C25200"/>
<stop offset="0.892696" stop-color="#FFC909"/>
<stop offset="0.986342" stop-color="#A55007"/>
<stop offset="1" stop-color="#FEE13E"/>
</radialGradient>
<radialGradient id="paint20_radial_2188_59983" cx="0" cy="0" r="1" gradientUnits="userSpaceOnUse" gradientTransform="translate(23.2954 23.0308) rotate(-90) scale(23.0116 23.2939)">
<stop stop-color="#8F4207"/>
<stop offset="0.430258" stop-color="#904200"/>
<stop offset="0.645669" stop-color="#D28304"/>
<stop offset="0.695159" stop-color="#FEE13E"/>
<stop offset="0.761643" stop-color="#8F4207"/>
<stop offset="0.783072" stop-color="#D29804"/>
<stop offset="0.86918" stop-color="#C25200"/>
<stop offset="0.892696" stop-color="#FFC909"/>
<stop offset="0.986342" stop-color="#A55007"/>
<stop offset="1" stop-color="#FEE13E"/>
</radialGradient>
<radialGradient id="paint21_radial_2188_59983" cx="0" cy="0" r="1" gradientUnits="userSpaceOnUse" gradientTransform="translate(23.2954 23.0308) rotate(-90) scale(23.0116 23.2939)">
<stop stop-color="#8F4207"/>
<stop offset="0.430258" stop-color="#904200"/>
<stop offset="0.645669" stop-color="#D28304"/>
<stop offset="0.695159" stop-color="#FEE13E"/>
<stop offset="0.761643" stop-color="#8F4207"/>
<stop offset="0.783072" stop-color="#D29804"/>
<stop offset="0.86918" stop-color="#C25200"/>
<stop offset="0.892696" stop-color="#FFC909"/>
<stop offset="0.986342" stop-color="#A55007"/>
<stop offset="1" stop-color="#FEE13E"/>
</radialGradient>
<radialGradient id="paint22_radial_2188_59983" cx="0" cy="0" r="1" gradientUnits="userSpaceOnUse" gradientTransform="translate(23.2954 23.0308) rotate(-90) scale(23.0116 23.2939)">
<stop stop-color="#8F4207"/>
<stop offset="0.430258" stop-color="#904200"/>
<stop offset="0.645669" stop-color="#D28304"/>
<stop offset="0.695159" stop-color="#FEE13E"/>
<stop offset="0.761643" stop-color="#8F4207"/>
<stop offset="0.783072" stop-color="#D29804"/>
<stop offset="0.86918" stop-color="#C25200"/>
<stop offset="0.892696" stop-color="#FFC909"/>
<stop offset="0.986342" stop-color="#A55007"/>
<stop offset="1" stop-color="#FEE13E"/>
</radialGradient>
<radialGradient id="paint23_radial_2188_59983" cx="0" cy="0" r="1" gradientUnits="userSpaceOnUse" gradientTransform="translate(23.2954 23.0308) rotate(-90) scale(23.0116 23.2939)">
<stop stop-color="#8F4207"/>
<stop offset="0.430258" stop-color="#904200"/>
<stop offset="0.645669" stop-color="#D28304"/>
<stop offset="0.695159" stop-color="#FEE13E"/>
<stop offset="0.761643" stop-color="#8F4207"/>
<stop offset="0.783072" stop-color="#D29804"/>
<stop offset="0.86918" stop-color="#C25200"/>
<stop offset="0.892696" stop-color="#FFC909"/>
<stop offset="0.986342" stop-color="#A55007"/>
<stop offset="1" stop-color="#FEE13E"/>
</radialGradient>
<radialGradient id="paint24_radial_2188_59983" cx="0" cy="0" r="1" gradientUnits="userSpaceOnUse" gradientTransform="translate(23.2954 23.0308) rotate(-90) scale(23.0116 23.2939)">
<stop stop-color="#8F4207"/>
<stop offset="0.430258" stop-color="#904200"/>
<stop offset="0.645669" stop-color="#D28304"/>
<stop offset="0.695159" stop-color="#FEE13E"/>
<stop offset="0.761643" stop-color="#8F4207"/>
<stop offset="0.783072" stop-color="#D29804"/>
<stop offset="0.86918" stop-color="#C25200"/>
<stop offset="0.892696" stop-color="#FFC909"/>
<stop offset="0.986342" stop-color="#A55007"/>
<stop offset="1" stop-color="#FEE13E"/>
</radialGradient>
<radialGradient id="paint25_radial_2188_59983" cx="0" cy="0" r="1" gradientUnits="userSpaceOnUse" gradientTransform="translate(23.2954 23.0308) rotate(-90) scale(23.0116 23.2939)">
<stop stop-color="#8F4207"/>
<stop offset="0.430258" stop-color="#904200"/>
<stop offset="0.645669" stop-color="#D28304"/>
<stop offset="0.695159" stop-color="#FEE13E"/>
<stop offset="0.761643" stop-color="#8F4207"/>
<stop offset="0.783072" stop-color="#D29804"/>
<stop offset="0.86918" stop-color="#C25200"/>
<stop offset="0.892696" stop-color="#FFC909"/>
<stop offset="0.986342" stop-color="#A55007"/>
<stop offset="1" stop-color="#FEE13E"/>
</radialGradient>
<radialGradient id="paint26_radial_2188_59983" cx="0" cy="0" r="1" gradientUnits="userSpaceOnUse" gradientTransform="translate(23.2954 23.0308) rotate(-90) scale(23.0116 23.2939)">
<stop stop-color="#8F4207"/>
<stop offset="0.430258" stop-color="#904200"/>
<stop offset="0.645669" stop-color="#D28304"/>
<stop offset="0.695159" stop-color="#FEE13E"/>
<stop offset="0.761643" stop-color="#8F4207"/>
<stop offset="0.783072" stop-color="#D29804"/>
<stop offset="0.86918" stop-color="#C25200"/>
<stop offset="0.892696" stop-color="#FFC909"/>
<stop offset="0.986342" stop-color="#A55007"/>
<stop offset="1" stop-color="#FEE13E"/>
</radialGradient>
<linearGradient id="paint27_linear_2188_59983" x1="17.7012" y1="9.80378" x2="25.7684" y2="34.0371" gradientUnits="userSpaceOnUse">
<stop stop-color="#FFFFF7"/>
<stop offset="1" stop-color="#FFD850"/>
</linearGradient>
<linearGradient id="paint28_linear_2188_59983" x1="55.5557" y1="20.523" x2="77.3437" y2="28.197" gradientUnits="userSpaceOnUse">
<stop stop-color="#C42FED"/>
<stop offset="0.99971" stop-color="#639EFF"/>
</linearGradient>
<linearGradient id="paint29_linear_2188_59983" x1="55.5557" y1="20.523" x2="77.3437" y2="28.197" gradientUnits="userSpaceOnUse">
<stop stop-color="#C42FED"/>
<stop offset="0.99971" stop-color="#639EFF"/>
</linearGradient>
<linearGradient id="paint30_linear_2188_59983" x1="55.5557" y1="20.523" x2="77.3437" y2="28.197" gradientUnits="userSpaceOnUse">
<stop stop-color="#C42FED"/>
<stop offset="0.99971" stop-color="#639EFF"/>
</linearGradient>
<linearGradient id="paint31_linear_2188_59983" x1="55.5557" y1="36.8" x2="80.2957" y2="58.4454" gradientUnits="userSpaceOnUse">
<stop stop-color="#C42FED"/>
<stop offset="0.99971" stop-color="#639EFF"/>
</linearGradient>
<linearGradient id="paint32_linear_2188_59983" x1="55.5557" y1="36.8" x2="80.2957" y2="58.4454" gradientUnits="userSpaceOnUse">
<stop stop-color="#C42FED"/>
<stop offset="0.99971" stop-color="#639EFF"/>
</linearGradient>
<linearGradient id="paint33_linear_2188_59983" x1="55.5557" y1="36.8" x2="80.2957" y2="58.4454" gradientUnits="userSpaceOnUse">
<stop stop-color="#C42FED"/>
<stop offset="0.99971" stop-color="#639EFF"/>
</linearGradient>
<linearGradient id="paint34_linear_2188_59983" x1="55.5557" y1="36.8" x2="80.2957" y2="58.4454" gradientUnits="userSpaceOnUse">
<stop stop-color="#C42FED"/>
<stop offset="0.99971" stop-color="#639EFF"/>
</linearGradient>
<linearGradient id="paint35_linear_2188_59983" x1="55.5557" y1="36.8" x2="80.2957" y2="58.4454" gradientUnits="userSpaceOnUse">
<stop stop-color="#C42FED"/>
<stop offset="0.99971" stop-color="#639EFF"/>
</linearGradient>
<linearGradient id="paint36_linear_2188_59983" x1="55.5557" y1="36.8" x2="80.2957" y2="58.4454" gradientUnits="userSpaceOnUse">
<stop stop-color="#C42FED"/>
<stop offset="0.99971" stop-color="#639EFF"/>
</linearGradient>
<linearGradient id="paint37_linear_2188_59983" x1="55.5557" y1="36.8" x2="80.2957" y2="58.4454" gradientUnits="userSpaceOnUse">
<stop stop-color="#C42FED"/>
<stop offset="0.99971" stop-color="#639EFF"/>
</linearGradient>
<clipPath id="clip0_2188_59983">
<rect width="150" height="46" fill="white"/>
</clipPath>
</defs>
</svg>
